<svg width="280" height="194" viewBox="0 0 280 194" fill="none" xmlns="http://www.w3.org/2000/svg">
<g clip-path="url(#clip0)">
<path d="M135.467 171.232C75.2007 167.054 3.33016 124.51 6.98919 80.7034C10.6482 36.8971 80.2556 -3.88283 140.522 0.29561C200.789 4.47405 235.48 86.3405 231.821 130.147C228.162 173.953 195.734 175.411 135.467 171.232Z" fill="#F2F2F2"/>
<path d="M140.521 178.268C210.001 178.268 266.325 175.124 266.325 171.246C266.325 167.368 210.001 164.224 140.521 164.224C71.0413 164.224 14.7168 167.368 14.7168 171.246C14.7168 175.124 71.0413 178.268 140.521 178.268Z" fill="#3F3D56"/>
<path opacity="0.1" d="M140.521 175.777C199.703 175.777 247.679 173.698 247.679 171.133C247.679 168.569 199.703 166.49 140.521 166.49C81.3398 166.49 33.3638 168.569 33.3638 171.133C33.3638 173.698 81.3398 175.777 140.521 175.777Z" fill="black"/>
<path d="M52.7566 193.671C81.8933 193.671 105.513 191.795 105.513 189.481C105.513 187.166 81.8933 185.29 52.7566 185.29C23.62 185.29 0 187.166 0 189.481C0 191.795 23.62 193.671 52.7566 193.671Z" fill="#3F3D56"/>
<path opacity="0.1" d="M52.7568 192.184C77.5748 192.184 97.6938 190.944 97.6938 189.413C97.6938 187.883 77.5748 186.642 52.7568 186.642C27.9388 186.642 7.81982 187.883 7.81982 189.413C7.81982 190.944 27.9388 192.184 52.7568 192.184Z" fill="black"/>
<path d="M235.745 36.6957H48.7788V170.34H235.745V36.6957Z" fill="#3F3D56"/>
<path d="M140.135 54.9594H94.0102C93.9365 54.9596 93.8636 54.9465 93.7956 54.9209C93.7275 54.8954 93.6657 54.8578 93.6136 54.8104C93.5615 54.7631 93.5201 54.7068 93.4919 54.6449C93.4637 54.5829 93.4492 54.5165 93.4492 54.4494C93.4492 54.3824 93.4637 54.316 93.4919 54.254C93.5201 54.1921 93.5615 54.1358 93.6136 54.0884C93.6657 54.0411 93.7275 54.0035 93.7956 53.978C93.8636 53.9524 93.9365 53.9393 94.0102 53.9395H140.135C140.283 53.9397 140.425 53.9936 140.53 54.0892C140.634 54.1848 140.693 54.3144 140.693 54.4494C140.693 54.5845 140.634 54.7141 140.53 54.8097C140.425 54.9053 140.283 54.9591 140.135 54.9594V54.9594Z" fill="#F2F2F2"/>
<path d="M190.625 60.5693H118.08C117.931 60.5693 117.789 60.5156 117.684 60.4199C117.579 60.3243 117.52 60.1946 117.52 60.0593C117.52 59.924 117.579 59.7943 117.684 59.6987C117.789 59.603 117.931 59.5493 118.08 59.5493H190.625C190.698 59.5493 190.771 59.5625 190.839 59.5881C190.907 59.6138 190.969 59.6513 191.021 59.6987C191.073 59.746 191.114 59.8023 191.142 59.8641C191.17 59.926 191.185 59.9923 191.185 60.0593C191.185 60.1263 191.17 60.1926 191.142 60.2545C191.114 60.3163 191.073 60.3726 191.021 60.4199C190.969 60.4673 190.907 60.5048 190.839 60.5305C190.771 60.5561 190.698 60.5693 190.625 60.5693V60.5693Z" fill="#F2F2F2"/>
<path d="M140.358 66.1792H94.2341C94.0856 66.1792 93.9432 66.1254 93.8383 66.0298C93.7333 65.9341 93.6743 65.8044 93.6743 65.6692C93.6743 65.5339 93.7333 65.4042 93.8383 65.3086C93.9432 65.2129 94.0856 65.1592 94.2341 65.1592H140.358C140.507 65.1592 140.649 65.2129 140.754 65.3086C140.859 65.4042 140.918 65.5339 140.918 65.6692C140.918 65.8044 140.859 65.9341 140.754 66.0298C140.649 66.1254 140.507 66.1792 140.358 66.1792V66.1792Z" fill="#F2F2F2"/>
<path d="M190.625 66.2811H144.501C144.352 66.2811 144.21 66.2273 144.105 66.1317C144 66.0361 143.941 65.9063 143.941 65.7711C143.941 65.6358 144 65.5061 144.105 65.4105C144.21 65.3148 144.352 65.2611 144.501 65.2611H190.625C190.774 65.2611 190.916 65.3148 191.021 65.4105C191.126 65.5061 191.185 65.6358 191.185 65.7711C191.185 65.9063 191.126 66.0361 191.021 66.1317C190.916 66.2273 190.774 66.2811 190.625 66.2811V66.2811Z" fill="#F2F2F2"/>
<path d="M140.471 71.7889H94.3464C94.1979 71.7889 94.0556 71.7352 93.9506 71.6395C93.8456 71.5439 93.7866 71.4142 93.7866 71.2789C93.7866 71.1436 93.8456 71.0139 93.9506 70.9183C94.0556 70.8226 94.1979 70.7689 94.3464 70.7689H140.471C140.619 70.7689 140.762 70.8226 140.867 70.9183C140.972 71.0139 141.03 71.1436 141.03 71.2789C141.03 71.4142 140.972 71.5439 140.867 71.6395C140.762 71.7352 140.619 71.7889 140.471 71.7889V71.7889Z" fill="#F2F2F2"/>
<path d="M140.582 77.3988H94.4577C94.3093 77.3988 94.1669 77.345 94.0619 77.2494C93.9569 77.1537 93.8979 77.024 93.8979 76.8888C93.8979 76.7535 93.9569 76.6238 94.0619 76.5282C94.1669 76.4325 94.3093 76.3788 94.4577 76.3788H140.582C140.731 76.3788 140.873 76.4325 140.978 76.5282C141.083 76.6238 141.142 76.7535 141.142 76.8888C141.142 77.024 141.083 77.1537 140.978 77.2494C140.873 77.345 140.731 77.3988 140.582 77.3988V77.3988Z" fill="#F2F2F2"/>
<path d="M161.518 55.0615H148.307C148.159 55.0615 148.016 55.0077 147.912 54.9121C147.807 54.8165 147.748 54.6867 147.748 54.5515C147.748 54.4162 147.807 54.2865 147.912 54.1909C148.016 54.0952 148.159 54.0415 148.307 54.0415H161.518C161.666 54.0415 161.809 54.0952 161.914 54.1909C162.018 54.2865 162.077 54.4162 162.077 54.5515C162.077 54.6867 162.018 54.8165 161.914 54.9121C161.809 55.0077 161.666 55.0615 161.518 55.0615V55.0615Z" fill="#F2F2F2"/>
<path d="M161.518 71.7889H148.307C148.159 71.7889 148.016 71.7352 147.912 71.6395C147.807 71.5439 147.748 71.4142 147.748 71.2789C147.748 71.1436 147.807 71.0139 147.912 70.9183C148.016 70.8226 148.159 70.7689 148.307 70.7689H161.518C161.666 70.7689 161.809 70.8226 161.914 70.9183C162.018 71.0139 162.077 71.1436 162.077 71.2789C162.077 71.4142 162.018 71.5439 161.914 71.6395C161.809 71.7352 161.666 71.7889 161.518 71.7889V71.7889Z" fill="#F2F2F2"/>
<path d="M161.517 77.2968H148.307C148.233 77.297 148.161 77.2839 148.092 77.2583C148.024 77.2328 147.963 77.1952 147.91 77.1478C147.858 77.1005 147.817 77.0442 147.789 76.9823C147.761 76.9203 147.746 76.8539 147.746 76.7868C147.746 76.7198 147.761 76.6534 147.789 76.5914C147.817 76.5295 147.858 76.4732 147.91 76.4258C147.963 76.3785 148.024 76.3409 148.092 76.3154C148.161 76.2898 148.233 76.2767 148.307 76.2769H161.517C161.591 76.2767 161.664 76.2898 161.732 76.3154C161.8 76.3409 161.862 76.3785 161.914 76.4258C161.966 76.4732 162.007 76.5295 162.036 76.5914C162.064 76.6534 162.078 76.7198 162.078 76.7868C162.078 76.8539 162.064 76.9203 162.036 76.9823C162.007 77.0442 161.966 77.1005 161.914 77.1478C161.862 77.1952 161.8 77.2328 161.732 77.2583C161.664 77.2839 161.591 77.297 161.517 77.2968V77.2968Z" fill="#F2F2F2"/>
<path d="M183.684 77.2968H170.474C170.325 77.2965 170.183 77.2427 170.079 77.1471C169.974 77.0515 169.915 76.9219 169.915 76.7868C169.915 76.6518 169.974 76.5222 170.079 76.4266C170.183 76.331 170.325 76.2771 170.474 76.2769H183.684C183.758 76.2767 183.831 76.2898 183.899 76.3154C183.967 76.3409 184.028 76.3785 184.081 76.4258C184.133 76.4732 184.174 76.5295 184.202 76.5914C184.23 76.6534 184.245 76.7198 184.245 76.7868C184.245 76.8539 184.23 76.9203 184.202 76.9823C184.174 77.0442 184.133 77.1005 184.081 77.1478C184.028 77.1952 183.967 77.2328 183.899 77.2583C183.831 77.2839 183.758 77.297 183.684 77.2968V77.2968Z" fill="#F2F2F2"/>
<path d="M107.109 60.5693H93.8981C93.7497 60.5693 93.6073 60.5156 93.5023 60.4199C93.3974 60.3243 93.3384 60.1946 93.3384 60.0593C93.3384 59.924 93.3974 59.7943 93.5023 59.6987C93.6073 59.603 93.7497 59.5493 93.8981 59.5493H107.109C107.257 59.5493 107.399 59.603 107.504 59.6987C107.609 59.7943 107.668 59.924 107.668 60.0593C107.668 60.1946 107.609 60.3243 107.504 60.4199C107.399 60.5156 107.257 60.5693 107.109 60.5693V60.5693Z" fill="#F2F2F2"/>
<path d="M140.19 137.577H94.0661C93.9177 137.577 93.7753 137.523 93.6703 137.428C93.5653 137.332 93.5063 137.202 93.5063 137.067C93.5063 136.932 93.5653 136.802 93.6703 136.706C93.7753 136.611 93.9177 136.557 94.0661 136.557H140.19C140.339 136.557 140.481 136.611 140.586 136.706C140.691 136.802 140.75 136.932 140.75 137.067C140.75 137.202 140.691 137.332 140.586 137.428C140.481 137.523 140.339 137.577 140.19 137.577Z" fill="#F2F2F2"/>
<path d="M139.967 148.797H93.8425C93.694 148.797 93.5516 148.743 93.4467 148.647C93.3417 148.552 93.2827 148.422 93.2827 148.287C93.2827 148.151 93.3417 148.022 93.4467 147.926C93.5516 147.83 93.694 147.777 93.8425 147.777H139.967C140.115 147.777 140.258 147.83 140.363 147.926C140.468 148.022 140.527 148.151 140.527 148.287C140.527 148.422 140.468 148.552 140.363 148.647C140.258 148.743 140.115 148.797 139.967 148.797Z" fill="#F2F2F2"/>
<path d="M140.078 154.407H93.954C93.8804 154.407 93.8075 154.394 93.7394 154.368C93.6714 154.342 93.6095 154.305 93.5574 154.258C93.5053 154.21 93.464 154.154 93.4358 154.092C93.4076 154.03 93.3931 153.964 93.3931 153.897C93.3931 153.83 93.4076 153.763 93.4358 153.701C93.464 153.639 93.5053 153.583 93.5574 153.536C93.6095 153.488 93.6714 153.451 93.7394 153.425C93.8075 153.4 93.8804 153.386 93.954 153.387H140.078C140.152 153.386 140.225 153.4 140.293 153.425C140.361 153.451 140.423 153.488 140.475 153.536C140.527 153.583 140.568 153.639 140.597 153.701C140.625 153.763 140.639 153.83 140.639 153.897C140.639 153.964 140.625 154.03 140.597 154.092C140.568 154.154 140.527 154.21 140.475 154.258C140.423 154.305 140.361 154.342 140.293 154.368C140.225 154.394 140.152 154.407 140.078 154.407V154.407Z" fill="#F2F2F2"/>
<path d="M159.782 148.899H146.572C146.424 148.899 146.281 148.845 146.176 148.749C146.071 148.654 146.012 148.524 146.012 148.389C146.012 148.254 146.071 148.124 146.176 148.028C146.281 147.933 146.424 147.879 146.572 147.879H159.782C159.931 147.879 160.073 147.933 160.178 148.028C160.283 148.124 160.342 148.254 160.342 148.389C160.342 148.524 160.283 148.654 160.178 148.749C160.073 148.845 159.931 148.899 159.782 148.899Z" fill="#F2F2F2"/>
<path d="M159.782 154.407H146.572C146.424 154.407 146.281 154.353 146.176 154.257C146.071 154.162 146.012 154.032 146.012 153.897C146.012 153.761 146.071 153.632 146.176 153.536C146.281 153.44 146.424 153.387 146.572 153.387H159.782C159.931 153.387 160.073 153.44 160.178 153.536C160.283 153.632 160.342 153.761 160.342 153.897C160.342 154.032 160.283 154.162 160.178 154.257C160.073 154.353 159.931 154.407 159.782 154.407V154.407Z" fill="#F2F2F2"/>
<path d="M181.949 148.899H168.738C168.59 148.899 168.448 148.845 168.343 148.749C168.238 148.654 168.179 148.524 168.179 148.389C168.179 148.254 168.238 148.124 168.343 148.028C168.448 147.933 168.59 147.879 168.738 147.879H181.949C182.097 147.879 182.24 147.933 182.345 148.028C182.45 148.124 182.509 148.254 182.509 148.389C182.509 148.524 182.45 148.654 182.345 148.749C182.24 148.845 182.097 148.899 181.949 148.899V148.899Z" fill="#F2F2F2"/>
<path d="M190.681 143.187H118.136C117.987 143.187 117.845 143.133 117.74 143.037C117.635 142.942 117.576 142.812 117.576 142.677C117.576 142.542 117.635 142.412 117.74 142.316C117.845 142.221 117.987 142.167 118.136 142.167H190.681C190.83 142.167 190.972 142.221 191.077 142.316C191.182 142.412 191.241 142.542 191.241 142.677C191.241 142.812 191.182 142.942 191.077 143.037C190.972 143.133 190.83 143.187 190.681 143.187V143.187Z" fill="#F2F2F2"/>
<path d="M107.165 143.187H93.9543C93.8058 143.187 93.6635 143.133 93.5585 143.037C93.4535 142.942 93.3945 142.812 93.3945 142.677C93.3945 142.542 93.4535 142.412 93.5585 142.316C93.6635 142.221 93.8058 142.167 93.9543 142.167H107.165C107.313 142.167 107.456 142.221 107.56 142.316C107.665 142.412 107.724 142.542 107.724 142.677C107.724 142.812 107.665 142.942 107.56 143.037C107.456 143.133 107.313 143.187 107.165 143.187V143.187Z" fill="#F2F2F2"/>
<path d="M190.681 160.118H118.136C118.062 160.119 117.989 160.105 117.921 160.08C117.853 160.054 117.791 160.017 117.739 159.969C117.687 159.922 117.646 159.866 117.617 159.804C117.589 159.742 117.575 159.675 117.575 159.608C117.575 159.541 117.589 159.475 117.617 159.413C117.646 159.351 117.687 159.295 117.739 159.247C117.791 159.2 117.853 159.162 117.921 159.137C117.989 159.111 118.062 159.098 118.136 159.098H190.681C190.829 159.098 190.972 159.152 191.077 159.248C191.182 159.343 191.241 159.473 191.241 159.608C191.241 159.744 191.182 159.873 191.077 159.969C190.972 160.065 190.829 160.118 190.681 160.118V160.118Z" fill="#F2F2F2"/>
<path d="M107.164 160.118H93.954C93.8804 160.119 93.8075 160.105 93.7394 160.08C93.6714 160.054 93.6095 160.017 93.5574 159.969C93.5053 159.922 93.464 159.866 93.4358 159.804C93.4076 159.742 93.3931 159.675 93.3931 159.608C93.3931 159.541 93.4076 159.475 93.4358 159.413C93.464 159.351 93.5053 159.295 93.5574 159.247C93.6095 159.2 93.6714 159.162 93.7394 159.137C93.8075 159.111 93.8804 159.098 93.954 159.098H107.164C107.238 159.098 107.311 159.111 107.379 159.137C107.447 159.162 107.509 159.2 107.561 159.247C107.613 159.295 107.654 159.351 107.683 159.413C107.711 159.475 107.725 159.541 107.725 159.608C107.725 159.675 107.711 159.742 107.683 159.804C107.654 159.866 107.613 159.922 107.561 159.969C107.509 160.017 107.447 160.054 107.379 160.08C107.311 160.105 107.238 160.119 107.164 160.118Z" fill="#F2F2F2"/>
<path d="M129.051 90.8624L111.139 106.978L129.051 123.093L133.081 119.422L119.535 107.08L133.193 94.6362L129.051 90.8624Z" fill="#00C4F3"/>
<path d="M155.472 90.8624L173.385 106.978L155.472 123.093L151.442 119.422L164.988 107.08L151.33 94.6362L155.472 90.8624Z" fill="#00C4F3"/>
<path d="M53.7513 42.132C54.9871 42.132 55.9889 41.2192 55.9889 40.0933C55.9889 38.9674 54.9871 38.0547 53.7513 38.0547C52.5155 38.0547 51.5137 38.9674 51.5137 40.0933C51.5137 41.2192 52.5155 42.132 53.7513 42.132Z" fill="#00C4F3"/>
<path d="M59.7181 42.132C60.9539 42.132 61.9557 41.2192 61.9557 40.0933C61.9557 38.9674 60.9539 38.0547 59.7181 38.0547C58.4823 38.0547 57.4805 38.9674 57.4805 40.0933C57.4805 41.2192 58.4823 42.132 59.7181 42.132Z" fill="#00C4F3"/>
<path d="M65.6854 42.132C66.9212 42.132 67.923 41.2192 67.923 40.0933C67.923 38.9674 66.9212 38.0547 65.6854 38.0547C64.4496 38.0547 63.4478 38.9674 63.4478 40.0933C63.4478 41.2192 64.4496 42.132 65.6854 42.132Z" fill="#00C4F3"/>
<path opacity="0.1" d="M235.745 43.4911H48.7788V44.1706H235.745V43.4911Z" fill="black"/>
<path d="M280 137.598C280 152.043 270.574 157.087 258.947 157.087C247.32 157.087 237.895 152.043 237.895 137.598C237.895 123.153 258.947 104.776 258.947 104.776C258.947 104.776 280 123.153 280 137.598Z" fill="#F2F2F2"/>
<path d="M258.181 154.877L258.396 142.788L267.369 127.832L258.43 140.891L258.527 135.456L264.711 124.635L258.553 134.017L258.727 124.24L265.349 115.626L258.754 122.703L258.863 104.776L258.179 128.508L258.235 127.529L251.502 118.14L258.127 129.409L257.5 140.327L257.481 140.037L249.719 130.157L257.457 141.061L257.379 142.427L257.365 142.447L257.371 142.56L255.78 170.262H257.906L258.161 155.953L265.881 145.075L258.181 154.877Z" fill="#3F3D56"/>
<path d="M30.4866 170.134C29.8407 170.462 29.1593 170.728 28.4534 170.928C27.1906 171.242 25.841 171.127 24.5656 171.395C24.0434 171.505 23.475 171.735 23.309 172.199C23.1871 172.539 23.3197 172.907 23.4466 173.246C24.8559 177.011 25.7054 181.008 27.9529 184.418C28.8975 185.85 30.0699 187.147 31.4319 188.266C31.9428 188.686 32.5219 189.096 33.2059 189.162C33.5212 189.192 33.8396 189.146 34.1291 189.029C34.4186 188.911 34.669 188.726 34.8549 188.492C35.0407 188.258 35.1556 187.983 35.1878 187.696C35.22 187.409 35.1685 187.119 35.0384 186.855C34.8369 186.447 34.4623 186.131 34.2207 185.742C33.9587 185.246 33.8051 184.708 33.7683 184.158C33.5463 182.548 33.3324 180.865 33.9447 179.342C34.3554 178.319 35.1088 177.448 35.7364 176.522C36.364 175.596 36.8855 174.535 36.7458 173.454C36.6505 172.716 36.2555 172.041 35.8383 171.403C35.4203 170.764 34.594 169.046 33.7541 168.832C32.8823 168.611 31.247 169.779 30.4866 170.134Z" fill="#2F2E41"/>
<path d="M53.4686 183.138C53.4818 183.503 53.426 183.866 53.3038 184.213C53.0408 184.846 52.3886 185.279 52.0516 185.882C51.5829 186.72 51.7954 187.734 52.1059 188.631C52.3005 189.193 52.5558 189.778 53.0786 190.126C53.5256 190.379 54.034 190.527 54.5589 190.558C59.0431 191.124 63.5984 190.799 68.1235 190.918C68.9483 190.939 69.8215 190.966 70.5414 190.599C71.2614 190.231 71.7065 189.308 71.2168 188.703C70.7771 188.16 69.9077 188.165 69.1676 188.133C67.2404 188.044 65.4051 187.355 63.9681 186.181C63.6847 185.961 63.439 185.703 63.2388 185.417C63.0849 185.162 62.9572 184.896 62.8574 184.62C62.223 183.054 61.4683 181.531 60.599 180.063C60.3556 179.651 60.0801 179.223 59.6278 179.003C59.2968 178.866 58.9375 178.795 58.5738 178.794C57.446 178.727 54.5254 178.377 53.6533 179.176C52.8475 179.915 53.4865 182.201 53.4686 183.138Z" fill="#2F2E41"/>
<path d="M60.4085 91.8966C64.3871 91.8966 67.6124 88.9581 67.6124 85.3333C67.6124 81.7085 64.3871 78.77 60.4085 78.77C56.4299 78.77 53.2046 81.7085 53.2046 85.3333C53.2046 88.9581 56.4299 91.8966 60.4085 91.8966Z" fill="#FBBEBE"/>
<path d="M53.9033 90.7528C53.4748 91.7979 52.748 92.7794 51.6904 93.3418L61.654 95.1935C61.2926 93.8687 61.245 92.4889 61.5143 91.1459C61.6132 90.8209 61.6335 90.4801 61.5739 90.1472C61.3866 89.4886 60.5728 89.1716 59.8448 89.0204C58.0263 88.6427 56.4182 88.4402 54.7283 87.7085C54.2118 88.5141 54.2841 89.8239 53.9033 90.7528Z" fill="#FBBEBE"/>
<path d="M51.6075 90.8844C52.6793 90.4425 53.8471 90.2275 55.0232 90.2555C56.1993 90.2835 57.3531 90.5538 58.3982 91.046C59.6756 91.6593 60.7333 92.5851 61.7724 93.4984C62.7303 94.3403 63.7521 95.3043 63.8201 96.5153C63.853 97.102 63.652 97.6757 63.5505 98.2558C63.3681 99.4555 63.6 100.677 64.2138 101.752C64.8277 102.826 65.7933 103.7 66.9766 104.252C67.7681 105.453 67.9315 106.908 67.9436 108.309C67.9896 113.618 66.1512 118.992 67.4637 124.164C67.7718 125.379 68.2497 126.555 68.5159 127.778C68.8607 129.361 68.8437 130.99 69.0241 132.596C69.2197 134.335 69.6466 136.046 70.2954 137.691C69.8618 138.32 68.9594 138.56 68.1467 138.51C67.334 138.459 66.5741 138.137 65.8489 137.799C62.3375 136.162 59.1213 134.003 55.4845 132.612C53.0784 131.692 50.5151 131.118 48.1809 130.055C45.8467 128.992 43.6758 127.305 42.9621 125.018C42.6535 124.029 42.6345 122.987 42.6177 121.959C42.5467 117.63 42.4808 113.253 43.5152 109.027C44.4274 105.3 46.1858 101.734 46.5694 97.9317C46.6943 96.6939 46.6969 95.3689 47.456 94.3361C48.5289 92.8763 50.8454 92.4982 51.6075 90.8844Z" fill="#2F2E41"/>
<path d="M56.3113 85.426C56.7358 84.9215 57.5545 84.8527 58.2327 85.002C58.9108 85.1512 59.5361 85.4696 60.221 85.5906C60.3767 85.6308 60.5399 85.641 60.7002 85.6205C60.8604 85.6 61.0142 85.5493 61.1517 85.4715C61.3911 85.2567 61.5343 84.9684 61.5534 84.6628C61.7933 83.3623 61.8493 82.0392 61.7202 80.7258C61.6845 80.5415 61.698 80.3522 61.7596 80.1737C61.9292 79.8014 62.4465 79.7128 62.869 79.5934C63.5661 79.3787 64.1648 78.9586 64.5706 78.3994C64.9764 77.8402 65.1661 77.1737 65.1098 76.5053C65.0993 76.1847 64.9514 75.8806 64.698 75.658C64.4058 75.4411 63.9968 75.4277 63.6199 75.425C61.6834 75.4108 59.7469 75.4112 57.8104 75.4263C57.0936 75.4318 56.3409 75.4479 55.7196 75.7735C55.2602 76.0142 54.9186 76.4016 54.5062 76.7048C53.4306 77.4956 51.9757 77.6565 50.6671 78.0618C50.0283 78.2275 49.4482 78.5427 48.9845 78.9759C48.5493 79.4289 48.3401 80.1024 48.6134 80.6505C48.7537 80.8789 48.9105 81.0986 49.0825 81.3082C49.8544 82.4327 49.3406 83.8912 49.4558 85.2133C49.5998 86.8642 52.2814 89.5424 54.0998 89.9331C57.0355 90.5638 55.3395 86.5097 56.3113 85.426Z" fill="#2F2E41"/>
<path d="M52.2448 157.81C52.4301 159.015 52.6677 160.225 52.6042 161.441C52.5155 163.138 51.8436 164.774 51.7194 166.469C51.6266 167.736 51.8412 169.016 51.6482 170.273C51.5245 171.078 51.2365 171.854 51.0581 172.65C50.7757 173.948 50.7837 175.284 51.0816 176.579C51.3795 177.873 51.9612 179.1 52.7918 180.185C52.9138 180.371 53.0873 180.524 53.2949 180.629C53.4939 180.696 53.707 180.722 53.9184 180.704C56.0151 180.666 58.1063 180.492 60.1763 180.186C60.3279 180.181 60.4714 180.123 60.5782 180.025C60.6249 179.96 60.6547 179.886 60.6654 179.809C61.0493 178.011 60.174 176.209 59.9514 174.389C59.7137 172.445 60.2256 170.498 60.7336 168.598C60.964 167.66 61.2518 166.736 61.5957 165.828C61.8412 165.217 62.1378 164.623 62.3507 164.002C62.6521 163.026 62.8357 162.023 62.8981 161.011C63.0459 159.414 63.1242 157.813 63.133 156.209C63.1832 154.689 63.0443 153.168 62.719 151.676C62.2521 149.788 61.2959 148.034 60.3482 146.301C59.8414 146.412 59.3656 146.618 58.9514 146.906C57.7301 147.627 56.4548 148.269 55.135 148.827C54.2483 149.202 52.519 149.469 51.9562 150.251C51.4012 151.022 51.7593 152.595 51.8017 153.446C51.8745 154.906 52.0222 156.361 52.2448 157.81Z" fill="#2F2E41"/>
<path opacity="0.1" d="M52.2448 157.81C52.4301 159.015 52.6677 160.225 52.6042 161.441C52.5155 163.138 51.8436 164.774 51.7194 166.469C51.6266 167.736 51.8412 169.016 51.6482 170.273C51.5245 171.078 51.2365 171.854 51.0581 172.65C50.7757 173.948 50.7837 175.284 51.0816 176.579C51.3795 177.873 51.9612 179.1 52.7918 180.185C52.9138 180.371 53.0873 180.524 53.2949 180.629C53.4939 180.696 53.707 180.722 53.9184 180.704C56.0151 180.666 58.1063 180.492 60.1763 180.186C60.3279 180.181 60.4714 180.123 60.5782 180.025C60.6249 179.96 60.6547 179.886 60.6654 179.809C61.0493 178.011 60.174 176.209 59.9514 174.389C59.7137 172.445 60.2256 170.498 60.7336 168.598C60.964 167.66 61.2518 166.736 61.5957 165.828C61.8412 165.217 62.1378 164.623 62.3507 164.002C62.6521 163.026 62.8357 162.023 62.8981 161.011C63.0459 159.414 63.1242 157.813 63.133 156.209C63.1832 154.689 63.0443 153.168 62.719 151.676C62.2521 149.788 61.2959 148.034 60.3482 146.301C59.8414 146.412 59.3656 146.618 58.9514 146.906C57.7301 147.627 56.4548 148.269 55.135 148.827C54.2483 149.202 52.519 149.469 51.9562 150.251C51.4012 151.022 51.7593 152.595 51.8017 153.446C51.8745 154.906 52.0222 156.361 52.2448 157.81Z" fill="black"/>
<path d="M42.5055 132.063C41.5488 134.41 42.9551 136.945 44.1768 139.187C47.1866 144.711 49.2767 150.605 51.3557 156.474C51.5114 156.914 51.667 157.394 51.4934 157.828C51.3435 158.136 51.1001 158.399 50.7918 158.586C49.3584 159.578 47.5332 159.931 45.8256 160.45C44.1754 160.952 42.5949 161.627 41.116 162.462C39.8786 163.16 38.7195 163.966 37.5627 164.771L33.88 167.334C33.6416 167.481 33.4333 167.664 33.2645 167.877C32.9093 168.384 33.0548 169.047 33.2316 169.627C33.6999 171.163 34.3029 172.663 35.0347 174.111C35.1551 174.428 35.3843 174.702 35.6886 174.891C36.2634 175.173 36.9664 174.8 37.4054 174.36C37.8443 173.92 38.224 173.372 38.8427 173.183C39.4607 172.995 40.1409 173.223 40.7864 173.141C41.8303 173.007 42.5233 172.131 43.2758 171.458C46.3501 168.71 51.4829 168.91 54.8648 166.48C55.3537 166.082 55.8712 165.713 56.414 165.378C56.9857 165.07 57.6341 164.901 58.2273 164.629C60.0314 163.801 61.1657 162.09 61.7733 160.335C62.3808 158.579 62.5541 156.727 62.9907 154.93C63.2165 154.001 63.5136 153.082 63.614 152.135C63.6786 151.254 63.6575 150.37 63.5511 149.492L62.3308 135.739C62.2314 134.62 62.1319 133.499 61.939 132.389C58.3149 132.507 54.6934 132.64 51.0672 132.679C48.1817 132.71 45.2433 132.894 42.5055 132.063Z" fill="#2F2E41"/>
<path d="M41.1732 135.28C41.6648 136.001 42.8614 135.986 43.6854 135.591C44.5094 135.196 45.1495 134.532 45.9754 134.141C47.0852 133.615 48.3985 133.634 49.6491 133.667C51.6291 133.718 53.6333 133.772 55.5383 134.266C57.5086 134.777 59.4267 135.762 61.464 135.566C61.8185 135.531 62.2062 135.439 62.3991 135.166C62.5122 134.968 62.5653 134.746 62.5532 134.523L62.6198 132.902C62.6606 132.621 62.6114 132.336 62.4781 132.08C62.3071 131.868 62.0727 131.704 61.8028 131.609C58.903 130.33 55.596 130.092 52.3762 129.992C50.7395 129.941 49.1021 129.92 47.464 129.929C46.0739 129.937 44.4051 129.753 43.0537 130.092C41.2399 130.546 40.253 133.932 41.1732 135.28Z" fill="#2F2E41"/>
<path d="M59.3814 92.8096C55.5819 92.7789 52.1387 90.494 48.3395 90.4383C47.8805 90.4094 47.4206 90.4817 46.9988 90.6491C46.4694 90.8921 46.1213 91.3619 45.7192 91.7586C44.5958 92.867 42.9691 93.4587 41.815 94.5405C40.7329 95.5548 40.1311 97.0661 40.5583 98.426C40.9855 99.7858 42.5979 100.829 44.1084 100.502C44.717 98.7073 45.973 97.1525 47.6729 96.0896C48.5574 95.5727 49.4896 95.1269 50.4589 94.7572C52.1664 94.0524 54.0758 93.3341 55.8585 93.8624C56.5159 94.0886 57.1358 94.3966 57.7006 94.7776L60.6726 96.5965C60.3263 95.3521 60.0149 93.9564 59.3814 92.8096Z" fill="#00C4F3"/>
<path d="M43.6709 99.2988C43.1663 99.8723 43.8931 100.703 43.7819 101.431C43.708 101.915 43.2711 102.284 43.0892 102.743C42.9008 103.219 43.0007 103.746 42.9293 104.248C42.8575 104.612 42.7515 104.971 42.6122 105.319C42.2921 106.359 42.0687 107.422 41.9443 108.496L41.2793 113.021C41.1639 113.702 41.0936 114.388 41.0689 115.077C41.1025 115.592 41.0647 116.108 40.9565 116.614C40.8093 117.109 40.4832 117.542 40.2638 118.013C40.0445 118.485 39.9428 119.056 40.2391 119.491C39.2468 120.244 38.9517 121.723 39.6456 122.716C39.7777 122.87 39.881 123.044 39.9514 123.229C39.9898 123.488 39.9429 123.751 39.8167 123.985L39.1443 125.618C38.9721 126.036 38.9177 126.672 39.3963 126.767C38.9999 127.142 38.691 127.587 38.4884 128.073C38.3902 128.318 38.3608 128.581 38.403 128.838C38.4453 129.096 38.5578 129.34 38.7302 129.547C38.8973 129.681 39.0396 129.838 39.1515 130.013C39.2173 130.257 39.2003 130.513 39.1028 130.747C39.0022 131.104 38.9829 131.475 39.0458 131.839C39.1088 132.203 39.2528 132.551 39.469 132.862C39.693 133.168 40.0103 133.409 40.382 133.554C40.7537 133.699 41.1637 133.743 41.5621 133.679C42.9072 133.403 44.116 132.966 45.4723 133.193C48.3927 133.681 51.3224 134.172 54.1509 134.994C57.379 135.933 60.5048 137.31 63.8786 137.599C64.1005 137.641 64.3314 137.608 64.5291 137.507C64.701 137.359 64.8079 137.158 64.8299 136.944C65.1775 135.459 65.5251 133.974 65.8727 132.489C66.2929 130.843 66.6129 129.178 66.8312 127.5C66.9499 126.417 66.9837 125.327 67.0175 124.24L67.2862 115.58C67.4121 114.303 67.2253 113.017 66.7393 111.815L65.1934 107.319C64.3113 104.753 62.2876 102.478 61.567 99.8708C61.111 98.2206 60.7741 96.4497 59.5512 95.1635C57.8078 93.3299 54.7914 93.0447 52.1512 93.36C50.9585 93.5024 49.7555 93.7482 48.7239 94.3117C47.5309 94.9634 46.652 95.9899 45.8018 96.9928C45.1011 97.8194 44.3879 98.4839 43.6709 99.2988Z" fill="#00C4F3"/>
<path d="M49.8354 124.77C50.0529 125.625 50.5098 126.413 50.7894 127.252C51.2579 128.659 51.2181 130.173 51.6857 131.58C51.8819 132.17 52.1663 132.737 52.3072 133.341C52.6356 134.747 52.1561 136.203 51.5604 137.535C50.9648 138.867 50.2393 140.18 50.046 141.607C49.9098 142.613 50.1054 143.748 50.956 144.401C51.839 145.078 53.1223 145.032 54.2724 144.942C54.6853 144.931 55.0929 144.854 55.476 144.714C56.3556 144.334 56.726 143.386 56.9316 142.52C57.6207 139.616 57.4238 136.606 57.2236 133.641L56.6999 125.886C56.5991 124.394 56.4911 122.87 55.9862 121.436C55.8025 120.915 55.4824 119.861 54.9596 119.528C54.4418 119.198 52.9631 119.184 52.322 119.156C49.3142 119.028 49.3479 122.852 49.8354 124.77Z" fill="#FBBEBE"/>
<path d="M53.168 96.1388C52.5537 95.8457 51.7798 95.9721 51.186 96.2983C50.6127 96.656 50.1105 97.1002 49.7012 97.6117C48.3738 99.0879 46.9687 100.782 47.1655 102.682C47.2393 103.394 47.5387 104.068 47.7417 104.759C48.6316 107.79 47.6475 110.995 47.7604 114.131C47.8257 115.943 48.2584 117.725 48.6894 119.495C48.7773 119.856 48.9182 120.274 49.3017 120.396C49.5898 120.487 49.901 120.37 50.1861 120.271C51.2483 119.913 52.3895 119.794 53.513 119.923C54.6366 120.052 55.7095 120.425 56.6412 121.012C57.3535 120.666 57.0866 119.571 56.9269 118.85C56.4524 116.707 57.0965 114.497 57.8787 112.431C58.6609 110.365 59.5968 108.302 59.7264 106.12C59.8733 103.647 58.9734 101.233 58.0855 98.893C57.8917 98.3821 57.6799 97.8464 57.2306 97.4935C56.8459 97.2329 56.4051 97.0494 55.937 96.955C54.994 96.7011 54.0392 96.5544 53.168 96.1388Z" fill="#2F2E41"/>
</g>
<defs>
<clipPath id="clip0">
<rect width="280" height="193.671" fill="white"/>
</clipPath>
</defs>
</svg>
