<svg width="230" height="171" viewBox="0 0 230 171" fill="none" xmlns="http://www.w3.org/2000/svg">
<g clip-path="url(#clip0)">
<path d="M96.7185 98.216C114.21 98.216 128.39 84.0364 128.39 66.5449C128.39 49.0534 114.21 34.8738 96.7185 34.8738C79.227 34.8738 65.0474 49.0534 65.0474 66.5449C65.0474 84.0364 79.227 98.216 96.7185 98.216Z" fill="#00BBFF"/>
<path d="M100.861 92.8564C83.2626 92.8564 68.9458 78.5395 68.9458 60.9416C68.9458 43.3437 83.2626 29.0269 100.861 29.0269C118.458 29.0269 132.775 43.3437 132.775 60.9416C132.775 78.5395 118.458 92.8564 100.861 92.8564ZM100.861 29.5141C94.6447 29.5141 88.5685 31.3573 83.4003 34.8106C78.2321 38.2639 74.2039 43.1722 71.8252 48.9148C69.4465 54.6575 68.8242 60.9765 70.0368 67.0728C71.2494 73.1692 74.2426 78.769 78.6378 83.1643C83.0331 87.5595 88.6329 90.5527 94.7293 91.7653C100.826 92.978 107.145 92.3556 112.887 89.9769C118.63 87.5982 123.538 83.5701 126.992 78.4018C130.445 73.2336 132.288 67.1574 132.288 60.9416C132.279 52.6094 128.964 44.6212 123.073 38.7294C117.181 32.8376 109.193 29.5235 100.861 29.5141V29.5141Z" fill="#3F3D56"/>
<path d="M197.579 107.438H0V0H197.579V107.438ZM0.487248 106.951H197.092V0.487248H0.487248V106.951Z" fill="#3F3D56"/>
<path d="M49.9432 8.52686H6.57812V12.9121H49.9432V8.52686Z" fill="#F2F2F2"/>
<path d="M114.991 8.52686H71.6255V12.9121H114.991V8.52686Z" fill="#F2F2F2"/>
<path d="M180.038 8.52686H136.673V12.9121H180.038V8.52686Z" fill="#F2F2F2"/>
<path d="M52.8665 10.9631H9.01416V6.09058H52.8665V10.9631ZM9.50141 10.4758H52.3792V6.57782H9.50141V10.4758Z" fill="#3F3D56"/>
<path d="M117.914 10.9631H74.0615V6.09058H117.914V10.9631ZM74.5488 10.4758H117.427V6.57782H74.5488V10.4758Z" fill="#3F3D56"/>
<path d="M182.962 10.9631H139.109V6.09058H182.962V10.9631ZM139.597 10.4758H182.474V6.57782H139.597V10.4758Z" fill="#3F3D56"/>
<path d="M230 166.331H28.376V166.953H230V166.331Z" fill="#2F2E41"/>
<path d="M95.8662 117.792L111.215 88.0701L115.356 90.5063L97.8152 119.01L95.8662 117.792Z" fill="#3F3D56"/>
<path d="M86.9735 124.248C86.9735 124.248 89.8024 126.471 90.1235 121.715C90.1645 120.96 90.3621 120.221 90.7037 119.547C91.0454 118.872 91.5236 118.275 92.1081 117.795C93.389 116.772 95.2324 116.072 97.4494 117.427C99.4227 118.633 99.8667 120.381 99.7582 121.94C99.6613 123.056 99.2952 124.133 98.6913 125.077C98.0875 126.021 97.2638 126.805 96.2908 127.361C94.0915 128.667 90.6198 129.649 86.9735 126.441C86.9735 126.441 84.7809 124.004 86.9735 124.248Z" fill="#00BBFF"/>
<path d="M114.113 53.851C117.378 53.851 120.024 51.2042 120.024 47.9392C120.024 44.6741 117.378 42.0273 114.113 42.0273C110.847 42.0273 108.201 44.6741 108.201 47.9392C108.201 51.2042 110.847 53.851 114.113 53.851Z" fill="#FFB8B8"/>
<path d="M111.001 50.7395C111.001 50.7395 112.557 58.8294 111.935 60.3851C111.313 61.9408 120.647 59.7628 120.647 59.7628C120.647 59.7628 118.78 51.6729 119.091 49.8061C119.402 47.9392 111.001 50.7395 111.001 50.7395Z" fill="#FFB8B8"/>
<path d="M100.733 78.7429L101.356 87.1438L104.444 100.338L105.4 103.946L106.956 98.3454L105.4 85.5883L104.872 79.8448L100.733 78.7429Z" fill="#FFB8B8"/>
<path d="M133.404 77.4983V86.2104C133.404 86.2104 132.471 97.4118 130.604 100.212C128.737 103.012 128.115 89.0108 128.115 89.0108L129.578 78.7429L133.404 77.4983Z" fill="#FFB8B8"/>
<path d="M105.712 104.568C105.712 104.568 104.156 106.435 105.401 125.415C106.645 144.395 104.778 158.086 108.823 158.086C108.823 158.086 107.579 162.131 111.001 162.442C114.424 162.753 115.98 163.064 116.291 162.131C116.602 161.197 117.224 156.841 116.291 156.841C116.291 156.841 116.291 158.086 116.913 153.107C117.535 148.129 117.535 124.482 119.091 121.37L124.069 132.883C124.069 132.883 124.069 138.172 125.003 140.661C125.936 143.151 127.492 157.463 127.492 157.463L127.181 159.641C127.181 159.641 134.649 160.886 134.96 159.641C135.271 158.397 135.271 156.53 134.96 155.908C134.649 155.285 134.649 155.285 135.271 154.041C135.893 152.796 135.893 151.863 135.582 150.929C135.271 149.996 135.271 129.771 135.271 129.771C135.271 129.771 134.649 105.19 130.915 103.946C127.181 102.701 105.712 104.568 105.712 104.568Z" fill="#2F2E41"/>
<path d="M109.757 159.953L107.268 164.309C107.268 164.309 103.378 162.909 104.156 166.487C110.846 166.954 115.513 166.331 115.513 166.331C115.513 166.331 117.069 166.954 117.38 166.02C117.691 165.087 116.602 161.82 115.669 161.82C114.735 161.82 109.757 159.953 109.757 159.953Z" fill="#2F2E41"/>
<path d="M127.803 158.708C127.803 158.708 125.314 164.309 126.248 164.62C127.181 164.931 135.582 166.176 136.204 166.487C136.827 166.798 139.938 167.109 140.249 165.242C140.56 163.375 138.694 162.753 138.694 162.753C138.694 162.753 135.271 162.131 134.337 159.019C133.404 155.908 127.803 158.708 127.803 158.708Z" fill="#2F2E41"/>
<path d="M121.269 58.8294C121.269 58.8294 112.868 57.2736 111.001 58.8294C109.134 60.3851 101.355 63.4966 101.355 65.0523C101.355 66.6081 105.4 81.8543 105.4 81.8543C105.4 81.8543 103.222 104.879 105.4 105.502C107.578 106.124 111.312 104.257 115.668 106.435C120.024 108.613 132.47 104.568 132.47 104.568C132.47 104.568 127.803 84.6547 129.048 80.9209C130.292 77.1871 131.226 64.43 131.226 64.43C131.226 64.43 125.936 58.8294 121.269 58.8294Z" fill="#8985A8"/>
<path d="M103.534 64.1189L101.356 64.7412C101.356 64.7412 96.6887 79.3652 98.5555 79.9875C100.422 80.6098 105.712 81.8544 106.334 81.8544C106.957 81.8544 103.534 64.1189 103.534 64.1189Z" fill="#8985A8"/>
<path d="M126.248 62.5632L131.226 64.4301C131.226 64.4301 137.76 76.5649 136.204 78.1207C134.649 79.6764 127.803 81.2321 127.803 81.2321L126.248 62.5632Z" fill="#8985A8"/>
<path d="M113.933 40.6373C113.441 40.5482 112.936 40.5705 112.454 40.7026C112.068 40.8733 111.713 41.1062 111.403 41.392C110.84 41.8406 110.239 42.239 109.606 42.5825C109.102 42.8562 108.56 43.1095 108.208 43.5626C108.042 43.7915 107.909 44.043 107.813 44.3095C107.207 45.8581 107.044 47.545 107.343 49.181C107.376 49.4135 107.446 49.6392 107.55 49.8499C107.874 50.4458 108.588 50.6806 109.189 50.9929C110.332 51.5859 111.198 52.5844 112.135 53.4669C112.483 53.8143 112.874 54.1157 113.298 54.3637C114.635 55.0925 116.269 54.8547 117.769 54.597C117.876 54.5968 117.981 54.5756 118.079 54.5345C118.177 54.4934 118.266 54.4334 118.341 54.3577C118.416 54.2821 118.475 54.1925 118.515 54.0939C118.555 53.9954 118.575 53.8899 118.574 53.7836L119.758 48.4566C119.973 47.6673 120.075 46.8517 120.061 46.0339C119.979 44.7407 119.279 42.9494 118.33 42.0309C117.224 40.9606 115.378 40.7903 113.933 40.6373Z" fill="#2F2E41"/>
<path d="M89.6538 166.395C94.363 166.395 98.1806 166.177 98.1806 165.908C98.1806 165.639 94.363 165.421 89.6538 165.421C84.9445 165.421 81.127 165.639 81.127 165.908C81.127 166.177 84.9445 166.395 89.6538 166.395Z" fill="#00BBFF"/>
<path d="M87.7046 167.37C92.4138 167.37 96.2314 167.151 96.2314 166.882C96.2314 166.613 92.4138 166.395 87.7046 166.395C82.9953 166.395 79.1777 166.613 79.1777 166.882C79.1777 167.151 82.9953 167.37 87.7046 167.37Z" fill="#00BBFF"/>
<path d="M79.1777 164.223C81.7341 164.223 83.8065 164.105 83.8065 163.959C83.8065 163.813 81.7341 163.694 79.1777 163.694C76.6212 163.694 74.5488 163.813 74.5488 163.959C74.5488 164.105 76.6212 164.223 79.1777 164.223Z" fill="#00BBFF"/>
<path d="M95.7441 170.071C98.3005 170.071 100.373 169.952 100.373 169.806C100.373 169.66 98.3005 169.542 95.7441 169.542C93.1876 169.542 91.1152 169.66 91.1152 169.806C91.1152 169.952 93.1876 170.071 95.7441 170.071Z" fill="#00BBFF"/>
</g>
<defs>
<clipPath id="clip0">
<rect width="230" height="170.07" fill="white"/>
</clipPath>
</defs>
</svg>
