<svg width="280" height="152" viewBox="0 0 280 152" fill="none" xmlns="http://www.w3.org/2000/svg">
<g clip-path="url(#clip0)">
<path opacity="0.1" d="M280 96.9794C280.003 101.084 279.439 105.169 278.324 109.119C277.245 112.927 275.659 116.573 273.607 119.957C273.607 132.219 265.329 142.817 253.314 147.859C248.294 149.945 242.908 151.01 237.471 150.992H53.1536C43.3022 150.992 34.1728 148.334 26.6858 143.806C24.543 142.516 22.5104 141.051 20.6085 139.427C12.2868 132.276 7.12739 122.392 7.12739 111.476C2.457 104.285 -0.019452 95.8891 0.000115063 87.314C0.000115063 69.3587 10.62 53.9196 25.834 47.1031C27.8543 46.1984 29.9418 45.4521 32.0777 44.871C32.8332 44.6654 33.5968 44.481 34.3686 44.3178C36.4261 43.8797 38.5129 43.5934 40.6123 43.4612C41.3711 43.4138 42.1339 43.3869 42.9008 43.3804H43.3218C44.1686 43.3804 45.0082 43.4098 45.8428 43.4587L46.1169 42.9937C46.453 42.4324 46.7973 41.8768 47.1498 41.3269C47.7861 40.325 48.4535 39.3379 49.1519 38.3654C49.8829 37.339 50.6457 36.329 51.4403 35.3353L51.6435 35.0905C52.0938 34.5292 52.554 33.9745 53.0239 33.4262C54.4924 31.7145 56.0425 30.0543 57.6742 28.4454C75.3235 11.1461 102.974 0.00976562 134.057 0.00976562C158.244 0.00976562 180.353 6.75277 197.288 17.894C203.703 14.2635 210.95 12.3585 218.322 12.365C242.244 12.365 261.643 32.036 261.643 56.301C261.64 57.8364 261.558 59.3705 261.399 60.8975C267.165 64.9796 271.865 70.3886 275.103 76.6683C278.34 82.948 280.02 89.9143 280 96.9794V96.9794Z" fill="#00BBFF"/>
<path opacity="0.2" d="M57.6787 28.4358V33.4166H53.0283C54.4854 31.7065 56.0355 30.0463 57.6787 28.4358Z" fill="#00BBFF"/>
<path opacity="0.2" d="M66.2134 27.1726H59.9697V33.4163H66.2134V27.1726Z" fill="#00BBFF"/>
<path opacity="0.2" d="M74.7457 27.1726H68.502V33.4163H74.7457V27.1726Z" fill="#00BBFF"/>
<path opacity="0.2" d="M83.2803 27.1726H77.0366V33.4163H83.2803V27.1726Z" fill="#00BBFF"/>
<path opacity="0.2" d="M91.8126 27.1726H85.5688V33.4163H91.8126V27.1726Z" fill="#00BBFF"/>
<path opacity="0.2" d="M100.347 27.1726H94.1035V33.4163H100.347V27.1726Z" fill="#00BBFF"/>
<path d="M108.882 27.1726H102.638V33.4163H108.882V27.1726Z" fill="#00BBFF"/>
<path opacity="0.2" d="M117.414 27.1726H111.17V33.4163H117.414V27.1726Z" fill="#00BBFF"/>
<path opacity="0.2" d="M125.948 27.1726H119.705V33.4163H125.948V27.1726Z" fill="#00BBFF"/>
<path opacity="0.2" d="M134.481 27.1726H128.237V33.4163H134.481V27.1726Z" fill="#00BBFF"/>
<path d="M143.015 27.1726H136.771V33.4163H143.015V27.1726Z" fill="#00BBFF"/>
<path opacity="0.2" d="M151.55 27.1726H145.306V33.4163H151.55V27.1726Z" fill="#00BBFF"/>
<path opacity="0.2" d="M160.082 27.1726H153.838V33.4163H160.082V27.1726Z" fill="#00BBFF"/>
<path opacity="0.2" d="M168.617 27.1726H162.373V33.4163H168.617V27.1726Z" fill="#00BBFF"/>
<path opacity="0.2" d="M177.151 27.1726H170.907V33.4163H177.151V27.1726Z" fill="#00BBFF"/>
<path opacity="0.2" d="M185.684 27.1726H179.44V33.4163H185.684V27.1726Z" fill="#00BBFF"/>
<path opacity="0.2" d="M194.218 27.1726H187.975V33.4163H194.218V27.1726Z" fill="#00BBFF"/>
<path d="M202.75 27.1726H196.506V33.4163H202.75V27.1726Z" fill="#00BBFF"/>
<path d="M211.285 27.1726H205.041V33.4163H211.285V27.1726Z" fill="#00BBFF"/>
<path opacity="0.2" d="M219.82 27.1726H213.576V33.4163H219.82V27.1726Z" fill="#00BBFF"/>
<path opacity="0.2" d="M228.352 27.1726H222.108V33.4163H228.352V27.1726Z" fill="#00BBFF"/>
<path d="M236.886 27.1726H230.643V33.4163H236.886V27.1726Z" fill="#00BBFF"/>
<path d="M245.419 27.1726H239.175V33.4163H245.419V27.1726Z" fill="#00BBFF"/>
<path d="M49.1466 38.363V41.3246H47.1445C47.7809 40.3162 48.4483 39.329 49.1466 38.363Z" fill="#00BBFF"/>
<path opacity="0.2" d="M57.6793 35.0808H51.4355V41.3245H57.6793V35.0808Z" fill="#00BBFF"/>
<path d="M66.2134 35.0808H59.9697V41.3245H66.2134V35.0808Z" fill="#00BBFF"/>
<path opacity="0.2" d="M74.7457 35.0808H68.502V41.3245H74.7457V35.0808Z" fill="#00BBFF"/>
<path opacity="0.7" d="M83.2803 35.0808H77.0366V41.3245H83.2803V35.0808Z" fill="#00BBFF"/>
<path opacity="0.2" d="M91.8126 35.0808H85.5688V41.3245H91.8126V35.0808Z" fill="#00BBFF"/>
<path opacity="0.4" d="M100.347 35.0808H94.1035V41.3245H100.347V35.0808Z" fill="#00BBFF"/>
<path d="M108.882 35.0808H102.638V41.3245H108.882V35.0808Z" fill="#00BBFF"/>
<path opacity="0.4" d="M117.414 35.0808H111.17V41.3245H117.414V35.0808Z" fill="#00BBFF"/>
<path opacity="0.2" d="M125.948 35.0808H119.705V41.3245H125.948V35.0808Z" fill="#00BBFF"/>
<path opacity="0.4" d="M134.481 35.0808H128.237V41.3245H134.481V35.0808Z" fill="#00BBFF"/>
<path d="M143.015 35.0808H136.771V41.3245H143.015V35.0808Z" fill="#00BBFF"/>
<path opacity="0.4" d="M151.55 35.0808H145.306V41.3245H151.55V35.0808Z" fill="#00BBFF"/>
<path opacity="0.4" d="M160.082 35.0808H153.838V41.3245H160.082V35.0808Z" fill="#00BBFF"/>
<path opacity="0.2" d="M168.617 35.0808H162.373V41.3245H168.617V35.0808Z" fill="#00BBFF"/>
<path opacity="0.4" d="M177.151 35.0808H170.907V41.3245H177.151V35.0808Z" fill="#00BBFF"/>
<path opacity="0.4" d="M185.684 35.0808H179.44V41.3245H185.684V35.0808Z" fill="#00BBFF"/>
<path opacity="0.2" d="M194.218 35.0808H187.975V41.3245H194.218V35.0808Z" fill="#00BBFF"/>
<path opacity="0.2" d="M202.75 35.0808H196.506V41.3245H202.75V35.0808Z" fill="#00BBFF"/>
<path opacity="0.4" d="M211.285 35.0808H205.041V41.3245H211.285V35.0808Z" fill="#00BBFF"/>
<path opacity="0.2" d="M219.82 35.0808H213.576V41.3245H219.82V35.0808Z" fill="#00BBFF"/>
<path d="M228.352 35.0808H222.108V41.3245H228.352V35.0808Z" fill="#00BBFF"/>
<path d="M236.886 35.0808H230.643V41.3245H236.886V35.0808Z" fill="#00BBFF"/>
<path d="M245.419 35.0808H239.175V41.3245H245.419V35.0808Z" fill="#00BBFF"/>
<path opacity="0.2" d="M32.0777 44.8708V49.2348H25.834V47.103C27.8542 46.1983 29.9418 45.452 32.0777 44.8708V44.8708Z" fill="#00BBFF"/>
<path opacity="0.2" d="M40.6124 43.4612V49.235H34.3687V44.3178L40.6124 43.4612Z" fill="#00BBFF"/>
<path d="M49.1446 42.9912H42.9009V49.2349H49.1446V42.9912Z" fill="#00BBFF"/>
<path opacity="0.7" d="M57.6793 42.9912H51.4355V49.2349H57.6793V42.9912Z" fill="#00BBFF"/>
<path d="M66.2134 42.9912H59.9697V49.2349H66.2134V42.9912Z" fill="#00BBFF"/>
<path opacity="0.7" d="M74.7457 42.9912H68.502V49.2349H74.7457V42.9912Z" fill="#00BBFF"/>
<path opacity="0.7" d="M83.2803 42.9912H77.0366V49.2349H83.2803V42.9912Z" fill="#00BBFF"/>
<path opacity="0.2" d="M91.8126 42.9912H85.5688V49.2349H91.8126V42.9912Z" fill="#00BBFF"/>
<path opacity="0.4" d="M100.347 42.9912H94.1035V49.2349H100.347V42.9912Z" fill="#00BBFF"/>
<path opacity="0.4" d="M108.882 42.9912H102.638V49.2349H108.882V42.9912Z" fill="#00BBFF"/>
<path d="M117.414 42.9912H111.17V49.2349H117.414V42.9912Z" fill="#00BBFF"/>
<path opacity="0.2" d="M125.948 42.9912H119.705V49.2349H125.948V42.9912Z" fill="#00BBFF"/>
<path opacity="0.4" d="M134.481 42.9912H128.237V49.2349H134.481V42.9912Z" fill="#00BBFF"/>
<path d="M143.015 42.9912H136.771V49.2349H143.015V42.9912Z" fill="#00BBFF"/>
<path opacity="0.2" d="M151.55 42.9912H145.306V49.2349H151.55V42.9912Z" fill="#00BBFF"/>
<path opacity="0.4" d="M160.082 42.9912H153.838V49.2349H160.082V42.9912Z" fill="#00BBFF"/>
<path opacity="0.2" d="M168.617 42.9912H162.373V49.2349H168.617V42.9912Z" fill="#00BBFF"/>
<path d="M177.151 42.9912H170.907V49.2349H177.151V42.9912Z" fill="#00BBFF"/>
<path opacity="0.2" d="M185.684 42.9912H179.44V49.2349H185.684V42.9912Z" fill="#00BBFF"/>
<path opacity="0.7" d="M194.218 42.9912H187.975V49.2349H194.218V42.9912Z" fill="#00BBFF"/>
<path opacity="0.7" d="M202.75 42.9912H196.506V49.2349H202.75V42.9912Z" fill="#00BBFF"/>
<path opacity="0.4" d="M211.285 42.9912H205.041V49.2349H211.285V42.9912Z" fill="#00BBFF"/>
<path opacity="0.2" d="M219.82 42.9912H213.576V49.2349H219.82V42.9912Z" fill="#00BBFF"/>
<path d="M228.352 42.9912H222.108V49.2349H228.352V42.9912Z" fill="#00BBFF"/>
<path d="M236.886 42.9912H230.643V49.2349H236.886V42.9912Z" fill="#00BBFF"/>
<path d="M245.419 42.9912H239.175V49.2349H245.419V42.9912Z" fill="#00BBFF"/>
<path opacity="0.2" d="M32.0777 50.8994H25.834V57.1431H32.0777V50.8994Z" fill="#00BBFF"/>
<path opacity="0.2" d="M40.6124 50.8994H34.3687V57.1431H40.6124V50.8994Z" fill="#00BBFF"/>
<path opacity="0.2" d="M49.1446 50.8994H42.9009V57.1431H49.1446V50.8994Z" fill="#00BBFF"/>
<path opacity="0.2" d="M57.6793 50.8994H51.4355V57.1431H57.6793V50.8994Z" fill="#00BBFF"/>
<path d="M66.2134 50.8994H59.9697V57.1431H66.2134V50.8994Z" fill="#00BBFF"/>
<path opacity="0.7" d="M74.7457 50.8994H68.502V57.1431H74.7457V50.8994Z" fill="#00BBFF"/>
<path opacity="0.7" d="M83.2803 50.8994H77.0366V57.1431H83.2803V50.8994Z" fill="#00BBFF"/>
<path opacity="0.2" d="M91.8126 50.8994H85.5688V57.1431H91.8126V50.8994Z" fill="#00BBFF"/>
<path opacity="0.2" d="M100.347 50.8994H94.1035V57.1431H100.347V50.8994Z" fill="#00BBFF"/>
<path opacity="0.4" d="M108.882 50.8994H102.638V57.1431H108.882V50.8994Z" fill="#00BBFF"/>
<path opacity="0.4" d="M117.414 50.8994H111.17V57.1431H117.414V50.8994Z" fill="#00BBFF"/>
<path d="M125.948 50.8994H119.705V57.1431H125.948V50.8994Z" fill="#00BBFF"/>
<path opacity="0.2" d="M134.481 50.8994H128.237V57.1431H134.481V50.8994Z" fill="#00BBFF"/>
<path opacity="0.4" d="M143.015 50.8994H136.771V57.1431H143.015V50.8994Z" fill="#00BBFF"/>
<path opacity="0.4" d="M151.55 50.8994H145.306V57.1431H151.55V50.8994Z" fill="#00BBFF"/>
<path opacity="0.4" d="M160.082 50.8994H153.838V57.1431H160.082V50.8994Z" fill="#00BBFF"/>
<path opacity="0.4" d="M168.617 50.8994H162.373V57.1431H168.617V50.8994Z" fill="#00BBFF"/>
<path opacity="0.2" d="M177.151 50.8994H170.907V57.1431H177.151V50.8994Z" fill="#00BBFF"/>
<path opacity="0.2" d="M185.684 50.8994H179.44V57.1431H185.684V50.8994Z" fill="#00BBFF"/>
<path opacity="0.2" d="M194.218 50.8994H187.975V57.1431H194.218V50.8994Z" fill="#00BBFF"/>
<path opacity="0.2" d="M202.75 50.8994H196.506V57.1431H202.75V50.8994Z" fill="#00BBFF"/>
<path opacity="0.7" d="M211.285 50.8994H205.041V57.1431H211.285V50.8994Z" fill="#00BBFF"/>
<path opacity="0.7" d="M219.82 50.8994H213.576V57.1431H219.82V50.8994Z" fill="#00BBFF"/>
<path opacity="0.4" d="M228.352 50.8994H222.108V57.1431H228.352V50.8994Z" fill="#00BBFF"/>
<path opacity="0.2" d="M236.886 50.8994H230.643V57.1431H236.886V50.8994Z" fill="#00BBFF"/>
<path d="M245.419 50.8994H239.175V57.1431H245.419V50.8994Z" fill="#00BBFF"/>
<path opacity="0.2" d="M32.0777 58.8098H25.834V65.0535H32.0777V58.8098Z" fill="#00BBFF"/>
<path opacity="0.2" d="M40.6124 58.8098H34.3687V65.0535H40.6124V58.8098Z" fill="#00BBFF"/>
<path opacity="0.4" d="M49.1446 58.8098H42.9009V65.0535H49.1446V58.8098Z" fill="#00BBFF"/>
<path opacity="0.2" d="M57.6793 58.8098H51.4355V65.0535H57.6793V58.8098Z" fill="#00BBFF"/>
<path opacity="0.2" d="M66.2134 58.8098H59.9697V65.0535H66.2134V58.8098Z" fill="#00BBFF"/>
<path opacity="0.7" d="M74.7457 58.8098H68.502V65.0535H74.7457V58.8098Z" fill="#00BBFF"/>
<path opacity="0.7" d="M83.2803 58.8098H77.0366V65.0535H83.2803V58.8098Z" fill="#00BBFF"/>
<path opacity="0.2" d="M91.8126 58.8098H85.5688V65.0535H91.8126V58.8098Z" fill="#00BBFF"/>
<path opacity="0.2" d="M100.347 58.8098H94.1035V65.0535H100.347V58.8098Z" fill="#00BBFF"/>
<path opacity="0.4" d="M108.882 58.8098H102.638V65.0535H108.882V58.8098Z" fill="#00BBFF"/>
<path d="M117.414 58.8098H111.17V65.0535H117.414V58.8098Z" fill="#00BBFF"/>
<path opacity="0.2" d="M125.948 58.8098H119.705V65.0535H125.948V58.8098Z" fill="#00BBFF"/>
<path d="M134.481 58.8098H128.237V65.0535H134.481V58.8098Z" fill="#00BBFF"/>
<path d="M143.015 58.8098H136.771V65.0535H143.015V58.8098Z" fill="#00BBFF"/>
<path d="M151.55 58.8098H145.306V65.0535H151.55V58.8098Z" fill="#00BBFF"/>
<path opacity="0.2" d="M160.082 58.8098H153.838V65.0535H160.082V58.8098Z" fill="#00BBFF"/>
<path d="M168.617 58.8098H162.373V65.0535H168.617V58.8098Z" fill="#00BBFF"/>
<path opacity="0.2" d="M177.151 58.8098H170.907V65.0535H177.151V58.8098Z" fill="#00BBFF"/>
<path opacity="0.2" d="M185.684 58.8098H179.44V65.0535H185.684V58.8098Z" fill="#00BBFF"/>
<path opacity="0.2" d="M194.218 58.8098H187.975V65.0535H194.218V58.8098Z" fill="#00BBFF"/>
<path opacity="0.2" d="M202.75 58.8098H196.506V65.0535H202.75V58.8098Z" fill="#00BBFF"/>
<path opacity="0.2" d="M211.285 58.8098H205.041V65.0535H211.285V58.8098Z" fill="#00BBFF"/>
<path opacity="0.7" d="M219.82 58.8098H213.576V65.0535H219.82V58.8098Z" fill="#00BBFF"/>
<path opacity="0.2" d="M228.352 58.8098H222.108V65.0535H228.352V58.8098Z" fill="#00BBFF"/>
<path opacity="0.2" d="M236.886 58.8098H230.643V65.0535H236.886V58.8098Z" fill="#00BBFF"/>
<path d="M245.419 58.8098H239.175V65.0535H245.419V58.8098Z" fill="#00BBFF"/>
<path opacity="0.2" d="M32.0777 66.7178H25.834V72.9615H32.0777V66.7178Z" fill="#00BBFF"/>
<path opacity="0.2" d="M40.6124 66.7178H34.3687V72.9615H40.6124V66.7178Z" fill="#00BBFF"/>
<path opacity="0.2" d="M49.1446 66.7178H42.9009V72.9615H49.1446V66.7178Z" fill="#00BBFF"/>
<path opacity="0.4" d="M57.6793 66.7178H51.4355V72.9615H57.6793V66.7178Z" fill="#00BBFF"/>
<path opacity="0.2" d="M66.2134 66.7178H59.9697V72.9615H66.2134V66.7178Z" fill="#00BBFF"/>
<path opacity="0.2" d="M74.7457 66.7178H68.502V72.9615H74.7457V66.7178Z" fill="#00BBFF"/>
<path opacity="0.7" d="M83.2803 66.7178H77.0366V72.9615H83.2803V66.7178Z" fill="#00BBFF"/>
<path opacity="0.2" d="M91.8126 66.7178H85.5688V72.9615H91.8126V66.7178Z" fill="#00BBFF"/>
<path opacity="0.2" d="M100.347 66.7178H94.1035V72.9615H100.347V66.7178Z" fill="#00BBFF"/>
<path opacity="0.2" d="M108.882 66.7178H102.638V72.9615H108.882V66.7178Z" fill="#00BBFF"/>
<path d="M117.414 66.7178H111.17V72.9615H117.414V66.7178Z" fill="#00BBFF"/>
<path opacity="0.2" d="M125.948 66.7178H119.705V72.9615H125.948V66.7178Z" fill="#00BBFF"/>
<path d="M134.481 66.7178H128.237V72.9615H134.481V66.7178Z" fill="#00BBFF"/>
<path d="M143.015 66.7178H136.771V72.9615H143.015V66.7178Z" fill="#00BBFF"/>
<path opacity="0.2" d="M151.55 66.7178H145.306V72.9615H151.55V66.7178Z" fill="#00BBFF"/>
<path opacity="0.2" d="M160.082 66.7178H153.838V72.9615H160.082V66.7178Z" fill="#00BBFF"/>
<path opacity="0.2" d="M168.617 66.7178H162.373V72.9615H168.617V66.7178Z" fill="#00BBFF"/>
<path opacity="0.2" d="M177.151 66.7178H170.907V72.9615H177.151V66.7178Z" fill="#00BBFF"/>
<path opacity="0.2" d="M185.684 66.7178H179.44V72.9615H185.684V66.7178Z" fill="#00BBFF"/>
<path opacity="0.2" d="M194.218 66.7178H187.975V72.9615H194.218V66.7178Z" fill="#00BBFF"/>
<path opacity="0.2" d="M202.75 66.7178H196.506V72.9615H202.75V66.7178Z" fill="#00BBFF"/>
<path opacity="0.2" d="M211.285 66.7178H205.041V72.9615H211.285V66.7178Z" fill="#00BBFF"/>
<path opacity="0.2" d="M219.82 66.7178H213.576V72.9615H219.82V66.7178Z" fill="#00BBFF"/>
<path opacity="0.2" d="M228.352 66.7178H222.108V72.9615H228.352V66.7178Z" fill="#00BBFF"/>
<path opacity="0.4" d="M236.886 66.7178H230.643V72.9615H236.886V66.7178Z" fill="#00BBFF"/>
<path d="M245.419 66.7178H239.175V72.9615H245.419V66.7178Z" fill="#00BBFF"/>
<path opacity="0.7" d="M32.0777 74.6284H25.834V80.8721H32.0777V74.6284Z" fill="#00BBFF"/>
<path opacity="0.7" d="M40.6124 74.6284H34.3687V80.8721H40.6124V74.6284Z" fill="#00BBFF"/>
<path opacity="0.7" d="M49.1446 74.6284H42.9009V80.8721H49.1446V74.6284Z" fill="#00BBFF"/>
<path opacity="0.7" d="M57.6793 74.6284H51.4355V80.8721H57.6793V74.6284Z" fill="#00BBFF"/>
<path opacity="0.7" d="M66.2134 74.6284H59.9697V80.8721H66.2134V74.6284Z" fill="#00BBFF"/>
<path opacity="0.2" d="M74.7457 74.6284H68.502V80.8721H74.7457V74.6284Z" fill="#00BBFF"/>
<path opacity="0.2" d="M83.2803 74.6284H77.0366V80.8721H83.2803V74.6284Z" fill="#00BBFF"/>
<path opacity="0.2" d="M91.8126 74.6284H85.5688V80.8721H91.8126V74.6284Z" fill="#00BBFF"/>
<path opacity="0.2" d="M100.347 74.6284H94.1035V80.8721H100.347V74.6284Z" fill="#00BBFF"/>
<path opacity="0.2" d="M108.882 74.6284H102.638V80.8721H108.882V74.6284Z" fill="#00BBFF"/>
<path opacity="0.2" d="M117.414 74.6284H111.17V80.8721H117.414V74.6284Z" fill="#00BBFF"/>
<path d="M125.948 74.6284H119.705V80.8721H125.948V74.6284Z" fill="#00BBFF"/>
<path opacity="0.2" d="M134.481 74.6284H128.237V80.8721H134.481V74.6284Z" fill="#00BBFF"/>
<path opacity="0.2" d="M143.015 74.6284H136.771V80.8721H143.015V74.6284Z" fill="#00BBFF"/>
<path opacity="0.2" d="M151.55 74.6284H145.306V80.8721H151.55V74.6284Z" fill="#00BBFF"/>
<path d="M160.082 74.6284H153.838V80.8721H160.082V74.6284Z" fill="#00BBFF"/>
<path opacity="0.2" d="M168.617 74.6284H162.373V80.8721H168.617V74.6284Z" fill="#00BBFF"/>
<path opacity="0.2" d="M177.151 74.6284H170.907V80.8721H177.151V74.6284Z" fill="#00BBFF"/>
<path opacity="0.2" d="M185.684 74.6284H179.44V80.8721H185.684V74.6284Z" fill="#00BBFF"/>
<path opacity="0.2" d="M194.218 74.6284H187.975V80.8721H194.218V74.6284Z" fill="#00BBFF"/>
<path opacity="0.2" d="M202.75 74.6284H196.506V80.8721H202.75V74.6284Z" fill="#00BBFF"/>
<path opacity="0.2" d="M211.285 74.6284H205.041V80.8721H211.285V74.6284Z" fill="#00BBFF"/>
<path opacity="0.2" d="M219.82 74.6284H213.576V80.8721H219.82V74.6284Z" fill="#00BBFF"/>
<path opacity="0.2" d="M228.352 74.6284H222.108V80.8721H228.352V74.6284Z" fill="#00BBFF"/>
<path opacity="0.2" d="M236.886 74.6284H230.643V80.8721H236.886V74.6284Z" fill="#00BBFF"/>
<path d="M245.419 74.6284H239.175V80.8721H245.419V74.6284Z" fill="#00BBFF"/>
<path d="M179.778 97.5985C184.491 97.5985 188.312 93.7775 188.312 89.0639C188.312 84.3504 184.491 80.5293 179.778 80.5293C175.064 80.5293 171.243 84.3504 171.243 89.0639C171.243 93.7775 175.064 97.5985 179.778 97.5985Z" fill="#767D9F"/>
<path d="M179.335 78.2066C180.187 81.9236 180.909 85.6684 181.503 89.4409C181.682 90.5618 181.841 91.744 181.435 92.8038C181.095 93.6874 180.402 94.3776 179.859 95.151C179.315 95.9244 178.904 96.9157 179.235 97.8017C179.565 98.6877 180.529 99.1723 181.45 99.422C184.083 100.132 186.89 99.6153 189.512 98.8468C190.699 98.5413 191.837 98.07 192.892 97.4468C194.003 96.7419 194.914 95.7629 195.751 94.7545C199.571 90.1213 202.073 84.5604 204.427 79.0339C202.914 79.1716 201.39 78.9473 199.981 78.3795C198.572 77.8118 197.318 76.9169 196.323 75.7688C195.359 74.6356 194.652 73.0569 195.195 71.6716C193.602 72.5454 191.71 72.6041 189.994 73.2014C188.93 73.6077 187.906 74.1116 186.935 74.7066C185.763 75.3838 184.598 76.074 183.439 76.7772C182.115 77.5751 180.874 78.2849 179.335 78.2066Z" fill="#AE6E79"/>
<path d="M197.185 84.6143C195.689 87.5244 193.743 90.322 190.965 92.0548C188.187 93.7877 184.448 94.2576 181.665 92.5443C180.294 91.7073 179.256 90.4346 178.06 89.3625C176.863 88.2905 175.367 87.3727 173.759 87.5122C171.987 87.6664 170.599 89.0492 169.412 90.3734C167.611 92.3852 165.871 94.4828 164.596 96.8643C162.148 101.441 161.568 106.792 161.676 111.98C161.783 117.169 162.535 122.331 162.552 127.52C162.576 133.903 161.494 140.235 160.4 146.523C170.46 145.284 180.532 147.991 190.613 149.017C197.065 149.68 203.565 149.665 210.051 149.648C211.192 149.648 212.406 149.619 213.356 148.987C213.936 148.564 214.406 148.006 214.724 147.362C215.62 145.71 215.979 143.825 216.229 141.963C216.863 137.259 216.883 132.496 216.9 127.747C216.944 116.244 216.985 104.699 215.524 93.2859C215.164 90.4786 214.704 87.6566 213.627 85.0304C212.55 82.4041 210.793 79.9884 208.336 78.5811C206.757 77.6755 203.098 76.0992 201.238 77.0122C199.15 78.0304 198.186 82.666 197.185 84.6143Z" fill="#767D9F"/>
<path d="M197.929 117.098C197.549 110 196.005 102.425 199.292 96.1253C200.1 94.5784 197.202 92.6473 198.098 91.1494C199.191 89.3231 200.02 87.3512 200.56 85.2924C200.746 84.5851 200.895 83.8361 200.719 83.1263C200.393 81.8316 199.113 81.0606 198.027 80.2725C196.827 79.4011 196.211 76.7455 195.824 75.3088C195.437 73.8721 198.9 75.6025 200.293 75.091C202.227 74.3837 204.684 74.8291 206.613 75.5462C207.69 75.9428 208.86 75.977 210.007 76.0064C212.237 76.0651 214.474 76.1214 216.687 75.8473C217.681 75.7225 218.677 75.534 219.675 75.5903C222.223 75.7347 224.438 77.4774 225.946 79.5382C227.454 81.599 228.413 84.0001 229.649 86.2323C230.68 88.0924 231.908 89.8497 232.787 91.7858C233.565 93.499 234.057 95.3396 234.544 97.1704L235.8 101.867C236.019 102.539 236.124 103.243 236.108 103.95C236.045 104.701 235.712 105.401 235.374 106.07C234.097 108.546 232.565 110.883 230.804 113.043C228.163 116.281 224.957 119.201 223.388 123.078C222.776 124.588 222.436 126.193 222.125 127.794C220.872 134.196 219.981 140.664 219.457 147.167C216.598 145.843 213.6 144.841 210.519 144.178C208.983 143.849 207.431 143.604 205.869 143.444C204.5 143.302 202.736 143.571 201.434 143.199C199.255 142.58 199.015 138.896 198.685 136.968C198.156 133.896 198.051 130.77 198.032 127.667C198.007 124.138 198.117 120.615 197.929 117.098Z" fill="#4C4981"/>
<path d="M150.091 103.825C151.122 109.699 152.257 115.591 154.497 121.11C154.441 121.164 154.384 121.213 154.328 121.262C154.13 121.43 153.924 121.59 153.709 121.751C153.207 122.104 152.656 122.402 152.24 122.862C152.083 123.038 151.958 123.242 151.873 123.462C151.796 123.634 151.757 123.82 151.757 124.009C151.757 124.197 151.796 124.384 151.873 124.556C150.706 125.072 149.35 124.913 148.04 124.864C146.912 124.823 145.818 124.864 144.912 125.484C143.654 126.35 143.275 128.014 143.072 129.527C142.997 130.078 142.932 130.631 142.878 131.184C142.826 131.698 142.784 132.214 142.751 132.731C142.64 134.442 142.625 136.158 142.705 137.871C142.718 138.184 142.735 138.497 142.756 138.811C138.757 138.715 135.112 136.63 131.664 134.603C130.876 134.141 130.063 133.654 129.551 132.89C129.08 132.14 128.881 131.251 128.986 130.371C128.986 130.247 129.008 130.127 129.025 129.999C129.135 129.273 129.323 128.561 129.586 127.875C130.665 124.953 132.255 122.247 134.283 119.884C135.159 118.861 136.145 117.859 136.554 116.574C136.733 116.014 136.799 115.419 136.98 114.861C137.792 112.443 140.725 111.3 141.728 108.953C141.973 108.392 142.085 107.778 142.389 107.24C142.662 106.792 143.015 106.398 143.429 106.077C143.608 105.928 143.794 105.783 143.977 105.639C145.697 104.291 147.354 102.867 148.948 101.368C149.245 101.089 149.539 100.807 149.829 100.521C149.791 101.629 149.879 102.737 150.091 103.825V103.825Z" fill="#4C4981"/>
<path d="M174.755 86.4524C174.403 86.8245 174.021 87.1745 173.647 87.522L173.546 87.6126L173.15 87.9797C172.43 88.6008 171.807 89.326 171.302 90.1311L171.26 90.1996C170.012 92.4343 170.475 95.1853 170.822 97.7234C171.253 100.886 171.447 104.077 171.402 107.269C171.339 111.674 170.82 116.051 170.81 120.451C170.81 121.45 170.832 122.446 170.876 123.445C170.947 125.067 171.069 126.688 171.216 128.308C171.375 130.085 171.566 131.859 171.745 133.634C171.887 135.007 172.021 136.378 172.134 137.748C172.19 138.458 172.244 139.165 172.288 139.875C172.34 140.707 172.381 141.542 172.406 142.374C172.423 142.903 172.433 143.429 172.433 143.958C172.433 144.259 172.433 144.557 172.433 144.856C172.433 145.429 172.417 146 172.386 146.569C172.354 147.302 172.304 148.036 172.237 148.772C172.161 149.572 172.026 150.446 171.463 151.009C171.429 151.043 171.392 151.075 171.356 151.107L170.563 151.009C165.096 150.355 159.577 150.256 154.091 150.715C154.211 149.888 154.321 149.063 154.428 148.234C154.477 147.842 154.526 147.448 154.573 147.054C154.627 146.603 154.678 146.153 154.727 145.703C154.783 145.213 154.835 144.724 154.884 144.234C155.011 142.973 155.123 141.711 155.219 140.448C155.361 138.606 155.469 136.76 155.542 134.912C155.578 134.029 155.606 133.145 155.625 132.261C155.653 131.164 155.666 130.067 155.665 128.969C155.665 127.902 155.656 126.833 155.638 125.763C155.638 125.41 155.623 125.058 155.594 124.708C155.572 124.393 155.529 124.079 155.464 123.77C155.282 123.058 155.036 122.363 154.73 121.695C154.676 121.567 154.624 121.45 154.573 121.315C154.544 121.249 154.517 121.181 154.49 121.115C155.899 119.859 156.903 118.178 157.867 116.523C159.431 113.858 161.032 111.075 161.294 107.996C161.556 104.917 160.026 101.458 157.084 100.519C156.284 100.274 155.437 100.205 154.612 100.061C153.834 99.9238 152.211 99.6129 151.31 99.0549C150.821 99.5575 150.331 100.051 149.842 100.536C149.871 99.7962 150.052 99.0708 150.373 98.4038L150.72 98.421C150.692 98.3426 150.679 98.2595 150.681 98.1762C150.681 97.9143 150.862 97.6182 151.249 97.2902C152.402 96.3112 154.216 96.0933 154.942 94.7692C155.246 94.2185 155.297 93.5626 155.542 92.985C156.245 91.3378 158.261 90.7308 159.475 89.414C160.689 88.0972 160.993 86.2322 161.974 84.7636C162.707 83.6912 163.724 82.8438 164.911 82.3161C165.009 82.2696 165.11 82.2231 165.21 82.1815C167.241 81.3126 169.655 81.1143 171.76 81.1192C172.577 81.1192 174.697 81.1437 175.734 81.5573C175.903 81.6175 176.057 81.7116 176.187 81.8339C177.293 83.0381 175.573 85.5811 174.755 86.4524Z" fill="#4C4981"/>
<path d="M150.456 98.2326C152.347 97.6634 154.332 97.4757 156.296 97.6803C158.259 97.885 160.163 98.4779 161.896 99.4246C163.658 100.404 165.239 101.769 166.208 103.532C167.665 106.175 167.601 109.362 167.498 112.379C167.447 113.89 167.381 115.454 166.715 116.81C165.944 118.378 164.49 119.455 163.007 120.336C162.078 120.929 161.06 121.37 159.992 121.641C158.347 121.998 156.638 121.695 154.981 121.396C153.18 121.063 151.247 120.662 149.996 119.321C149.262 118.542 148.86 117.532 148.464 116.543C147.894 115.115 147.323 113.689 146.75 112.264C145.759 109.79 145.424 107.732 146.733 105.321C147.328 104.222 148.055 103.194 148.642 102.088C148.936 101.525 149.988 98.377 150.456 98.2326Z" fill="#4C4981"/>
<path d="M253.322 140.543V147.861C248.301 149.947 242.916 151.012 237.479 150.994H171.471C171.437 151.029 171.4 151.06 171.363 151.092L170.57 150.994H53.1539C43.3025 150.994 34.1731 148.336 26.686 143.808V132.635L83.156 126.117H83.2L116.085 128.903L124.595 129.637L129.016 130.011L138.165 130.787L142.871 131.186L149.724 131.769L150.689 131.85L155.628 132.268L162.329 132.819L171.752 133.617L187.461 134.951L198.512 135.888L216.658 137.428L220.109 137.719L220.481 137.751L220.804 137.778L225.361 138.164L230.364 138.59L230.944 138.639L253.322 140.543Z" fill="#504F60"/>
<path d="M186.993 140.274L116.225 128.196L113.481 142.071L145.921 145.955L155.909 147.206L183.386 141.794L186.993 140.274Z" fill="#9C9CA1"/>
<path d="M150.36 146.51L185.816 139.846C185.993 139.812 186.176 139.818 186.35 139.863C186.525 139.908 186.688 139.991 186.827 140.106C186.966 140.221 187.078 140.366 187.154 140.53C187.231 140.693 187.27 140.872 187.269 141.052V141.052C187.27 141.339 187.17 141.617 186.987 141.837C186.805 142.058 186.55 142.207 186.268 142.259L151.643 148.743L150.36 146.51Z" fill="#9C9CA1"/>
<path d="M165.741 125.552C166.845 125.449 167.963 125.276 168.957 124.786C170.181 124.177 171.133 123.127 172.266 122.353C174.757 120.64 178.091 120.41 180.947 121.394C183.804 122.378 186.188 124.485 187.857 127.001C188.965 128.678 189.798 130.817 189.014 132.667C188.746 133.233 188.407 133.762 188.006 134.243L185.965 136.911C185.577 137.472 185.11 137.974 184.579 138.402C183.816 138.957 182.866 139.185 181.931 139.322C179.447 139.684 176.919 139.479 174.415 139.645C170.114 139.932 165.914 141.317 161.604 141.27C159.127 141.243 156.682 140.744 154.262 140.245L143.549 138.042C141.684 137.66 139.576 137.102 138.698 135.411C138.304 134.65 138.23 133.769 138.184 132.912C138.056 130.553 138.184 127.929 139.819 126.228C141.356 124.632 143.786 124.128 145.622 122.948C147.869 121.501 148.61 121.969 150.979 123.056C155.602 125.149 160.687 126.009 165.741 125.552V125.552Z" fill="#AE6E79"/>
<path opacity="0.05" d="M165.741 125.552C166.845 125.449 167.963 125.276 168.957 124.786C170.181 124.177 171.133 123.127 172.266 122.353C174.757 120.64 178.091 120.41 180.947 121.394C183.804 122.378 186.188 124.485 187.857 127.001C188.965 128.678 189.798 130.817 189.014 132.667C188.746 133.233 188.407 133.762 188.006 134.243L185.965 136.911C185.577 137.472 185.11 137.974 184.579 138.402C183.816 138.957 182.866 139.185 181.931 139.322C179.447 139.684 176.919 139.479 174.415 139.645C170.114 139.932 165.914 141.317 161.604 141.27C159.127 141.243 156.682 140.744 154.262 140.245L143.549 138.042C141.684 137.66 139.576 137.102 138.698 135.411C138.304 134.65 138.23 133.769 138.184 132.912C138.056 130.553 138.184 127.929 139.819 126.228C141.356 124.632 143.786 124.128 145.622 122.948C147.869 121.501 148.61 121.969 150.979 123.056C155.602 125.149 160.687 126.009 165.741 125.552V125.552Z" fill="black"/>
<path d="M208.762 122.197C205.756 123.359 202.733 124.527 199.586 125.219C194.309 126.382 188.787 126.198 183.552 127.527C180.786 128.232 178.037 129.368 175.196 129.138C173.926 129.035 172.699 128.648 171.463 128.355C164.52 126.641 156.626 127.197 150.987 131.603C149.058 133.108 147.48 134.985 146.048 136.987C145.742 137.42 145.534 137.914 145.442 138.436C145.349 138.958 145.372 139.494 145.51 140.005C145.648 140.517 145.898 140.992 146.241 141.396C146.584 141.8 147.012 142.123 147.494 142.342C149.687 143.351 152.037 143.978 154.441 144.195C157.654 144.479 160.883 144.024 164.079 143.569C168.822 142.896 173.568 142.22 178.299 141.464C179.998 141.192 181.697 140.911 183.405 140.695C195.699 139.141 208.216 141.03 220.542 139.733C221.787 139.601 223.055 139.43 224.189 138.899C227.057 137.553 228.477 134.004 227.884 130.885C227.292 127.767 225.006 125.175 222.255 123.584C219.949 122.246 217.463 121.705 214.895 121.137C212.511 120.581 211.057 121.315 208.762 122.197Z" fill="#AE6E79"/>
<path opacity="0.1" d="M235.129 103.556C236.485 105.333 236.774 107.717 236.627 109.942C236.48 112.167 235.951 114.367 235.873 116.602C235.765 119.666 236.505 122.72 236.38 125.775C236.292 127.912 235.785 130.007 235.185 132.058C234.478 134.479 233.455 137.08 231.22 138.243C228.254 139.787 222.032 138.918 218.912 140.127C219.195 138.358 221.917 135.795 222.201 134.026C222.397 132.802 222.595 131.544 222.385 130.318C222.115 128.754 221.198 127.366 220.108 126.211C218.376 124.373 216.114 122.99 213.63 122.539C211.145 122.089 205.063 122.459 203.076 124.027C202.831 122.407 207.384 120.846 208.984 120.496C209.782 120.317 210.698 120.417 211.336 119.911C212.56 118.951 211.672 117.04 211.73 115.505C211.777 114.281 212.492 113.16 212.636 111.937C212.881 109.979 211.603 107.984 212.105 106.062C212.291 105.353 212.705 104.729 212.991 104.053C213.862 101.985 213.48 99.6254 213.015 97.4275C212.727 96.047 212.445 94.4904 213.214 93.3131C213.926 92.2142 215.948 96.1278 217.242 95.9467C221.518 95.347 225.388 92.1774 228.841 94.7719C230.601 96.0935 230.831 97.4642 231.534 99.3512C232.216 101.148 233.986 102.068 235.129 103.556Z" fill="black"/>
<path d="M235.863 103.556C237.219 105.333 237.508 107.717 237.361 109.942C237.214 112.166 236.685 114.367 236.607 116.601C236.499 119.666 237.238 122.72 237.114 125.775C237.026 127.912 236.519 130.007 235.919 132.058C235.212 134.478 234.189 137.08 231.954 138.243C228.988 139.787 222.766 138.918 219.645 140.127C219.929 138.358 222.651 135.795 222.935 134.026C223.131 132.802 223.329 131.544 223.119 130.317C222.849 128.753 221.931 127.366 220.842 126.21C219.109 124.372 216.848 122.989 214.364 122.539C211.879 122.089 205.797 122.458 203.81 124.027C203.565 122.407 208.117 120.845 209.718 120.495C210.516 120.317 211.431 120.417 212.07 119.91C213.294 118.951 212.406 117.039 212.464 115.505C212.511 114.281 213.226 113.16 213.37 111.936C213.615 109.978 212.337 107.984 212.839 106.062C213.025 105.352 213.438 104.728 213.725 104.053C214.596 101.985 214.214 99.6252 213.749 97.4273C213.46 96.0468 213.179 94.4902 213.948 93.3129C214.66 92.214 216.052 91.7979 217.347 91.6143C221.682 91.028 226.075 92.1612 229.585 94.7717C231.345 96.0933 231.575 97.464 232.277 99.351C232.95 101.148 234.72 102.068 235.863 103.556Z" fill="#4C4981"/>
<path d="M73.916 91.9593L87.2233 141.14C87.3866 141.743 87.7296 142.282 88.2066 142.684C88.6837 143.087 89.2721 143.335 89.8936 143.395L149.79 149.149C150.278 149.196 150.771 149.125 151.226 148.943C151.681 148.761 152.086 148.472 152.407 148.101C152.727 147.73 152.955 147.287 153.069 146.81C153.184 146.334 153.182 145.836 153.065 145.36L138.492 86.0363C138.319 85.3311 137.901 84.7103 137.313 84.2841C136.725 83.858 136.005 83.654 135.281 83.7086L76.6401 88.0947C76.1898 88.1296 75.7529 88.2635 75.3603 88.4868C74.9678 88.7101 74.6294 89.0173 74.3692 89.3864C74.109 89.7555 73.9335 90.1775 73.8551 90.6222C73.7768 91.067 73.7976 91.5235 73.916 91.9593V91.9593Z" fill="#9C9CA1"/>
<path d="M192.649 101.556C196.286 101.556 199.233 98.5704 199.233 94.8869C199.233 91.2034 196.286 88.2173 192.649 88.2173C189.013 88.2173 186.065 91.2034 186.065 94.8869C186.065 98.5704 189.013 101.556 192.649 101.556Z" fill="white"/>
<path d="M198.056 82.7198C198.056 82.7198 199.444 86.8464 195.349 88.5817L194.825 89.4971L197.39 92.0278C197.39 92.0278 200.552 86.259 200.21 84.2104C200.21 84.2104 199.72 82.13 198.056 82.7198Z" fill="white"/>
<path d="M193.406 101.556C196.912 101.556 199.755 98.7138 199.755 95.2073C199.755 91.7009 196.912 88.8584 193.406 88.8584C189.899 88.8584 187.057 91.7009 187.057 95.2073C187.057 98.7138 189.899 101.556 193.406 101.556Z" fill="#00BBFF"/>
<path d="M200.242 85.148L199.233 83.4837L197.765 83.2756C198.078 77.7956 196.656 76.1631 196.656 76.1631L196.326 76.1312L194.887 75.9917L192.18 73.1819V72.384C195.983 72.8368 198.086 74.6431 199.221 76.7603C201.228 80.4756 200.242 85.148 200.242 85.148Z" fill="#00BBFF"/>
<path opacity="0.1" d="M196.338 75.1228V76.1312L194.898 75.9917L192.191 73.1819C192.191 73.1819 196.379 74.1193 196.338 75.1228Z" fill="black" stroke="#4C4981" stroke-miterlimit="10"/>
<path opacity="0.1" d="M200.242 85.148L199.233 83.4837V76.77C201.228 80.4756 200.242 85.148 200.242 85.148Z" fill="black" stroke="#4C4981" stroke-miterlimit="10"/>
<path d="M181.673 97.8172C183.363 96.8419 183.29 93.5535 181.511 90.4724C179.732 87.3912 176.921 85.6841 175.231 86.6594C173.542 87.6347 173.615 90.9231 175.394 94.0042C177.173 97.0853 179.984 98.7925 181.673 97.8172Z" fill="white"/>
<path d="M179.406 91.7001C181.185 94.7815 183.368 96.8399 181.679 97.819C179.991 98.798 175.071 98.3085 173.292 95.2246C171.512 92.1406 173.128 87.8819 174.816 86.9029C176.505 85.9238 177.624 88.6113 179.406 91.7001Z" fill="#00BBFF"/>
<path opacity="0.1" d="M195.249 69.5007C195.249 79.3472 188.51 88.8364 178.664 88.8364C173.935 88.8364 169.4 86.9578 166.056 83.614C162.712 80.2701 160.833 75.7349 160.833 71.006C160.833 66.277 162.712 61.7418 166.056 58.3979C169.4 55.0541 173.935 53.1755 178.664 53.1755C188.51 53.1853 195.249 59.6518 195.249 69.5007Z" fill="black"/>
<path d="M178.664 88.3566C188.511 88.3566 196.494 80.3737 196.494 70.5262C196.494 60.6787 188.511 52.6958 178.664 52.6958C168.816 52.6958 160.833 60.6787 160.833 70.5262C160.833 80.3737 168.816 88.3566 178.664 88.3566Z" fill="#AE6E79"/>
<path d="M177.098 62.6255C179.22 63.4063 180.475 65.5993 182.38 66.8206C185.072 68.5339 188.577 68.0909 191.651 67.244C193.364 66.7765 195.156 66.2063 196.842 66.7251C197.09 66.835 197.364 66.8739 197.633 66.8377C198 66.7325 198.181 66.3262 198.301 65.964C200.386 59.7472 199.449 52.7055 196.301 46.9538C195.489 45.4706 194.515 44.0363 193.173 43.0059C192.116 42.1957 190.873 41.6646 189.619 41.2118C187.329 40.3893 184.961 39.8046 182.551 39.4667C182.125 39.3894 181.691 39.3754 181.261 39.4251C180.671 39.5206 180.143 39.8388 179.616 40.1227C177.363 41.3308 174.863 42.0097 172.308 42.1076C168.881 42.2374 164.965 41.4297 162.324 43.6276C159.143 46.2636 159.936 51.4059 157.872 54.9842C156.507 57.351 153.873 59.0692 153.44 61.7639C153.327 62.5876 153.379 63.4255 153.594 64.2286C154.602 68.3748 158.616 71.586 162.895 71.6619C163.552 71.712 164.21 71.5772 164.794 71.2727C165.177 71.0114 165.515 70.6899 165.795 70.3206C168.597 67.0017 171.804 60.6772 177.098 62.6255Z" fill="#444053"/>
<path opacity="0.1" d="M198.3 64.1601C198.181 64.5223 197.999 64.9286 197.632 65.0339C197.363 65.0701 197.09 65.0311 196.842 64.9213C195.155 64.4024 193.354 64.9727 191.653 65.4402C188.576 66.287 185.064 66.7398 182.382 65.0168C180.475 63.793 179.222 61.5902 177.097 60.8216C171.803 58.8636 168.597 65.1979 165.787 68.5168C165.507 68.8861 165.169 69.2076 164.786 69.4689C164.202 69.7733 163.544 69.9081 162.887 69.858C158.623 69.7821 154.607 66.571 153.586 62.4248C153.53 62.18 153.481 61.9353 153.444 61.6905C153.444 61.7126 153.444 61.7321 153.432 61.7542C153.319 62.5778 153.372 63.4157 153.586 64.2188C154.595 68.365 158.611 71.5762 162.887 71.6521C163.544 71.7022 164.202 71.5674 164.786 71.2629C165.169 71.0016 165.507 70.6801 165.787 70.3108C168.597 66.9919 171.803 60.6674 177.097 62.6157C179.222 63.3965 180.475 65.5895 182.382 66.8108C185.074 68.5241 188.576 68.0811 191.653 67.2342C193.366 66.7668 195.155 66.1965 196.842 66.7154C197.09 66.8252 197.363 66.8642 197.632 66.8279C197.999 66.7227 198.181 66.3164 198.3 65.9542C199.142 63.4105 199.513 60.735 199.397 58.0583C199.325 60.1342 198.956 62.189 198.3 64.1601V64.1601Z" fill="black"/>
</g>
<defs>
<clipPath id="clip0">
<rect width="280" height="151.092" fill="white"/>
</clipPath>
</defs>
</svg>
