<svg width="254" height="207" viewBox="0 0 254 207" fill="none" xmlns="http://www.w3.org/2000/svg">
<path d="M126.558 175.516C70.1729 175.452 0.0608702 137.055 0.117615 92.1069C0.17436 47.1593 61.8141 0.704205 118.199 0.768151C174.584 0.832098 213.113 81.9381 213.057 126.886C213 171.833 182.943 175.58 126.558 175.516Z" fill="#F2F2F2"/>
<path d="M254 40H34V179.92H254V40Z" fill="#3F3D56"/>
<path d="M53.9177 66.447C55.6678 66.447 57.0865 65.0301 57.0865 63.2824C57.0865 61.5346 55.6678 60.1178 53.9177 60.1178C52.1677 60.1178 50.749 61.5346 50.749 63.2824C50.749 65.0301 52.1677 66.447 53.9177 66.447Z" fill="#F2F2F2"/>
<path d="M130.646 55.3708C132.396 55.3708 133.815 53.954 133.815 52.2062C133.815 50.4585 132.396 49.0416 130.646 49.0416C128.896 49.0416 127.478 50.4585 127.478 52.2062C127.478 53.954 128.896 55.3708 130.646 55.3708Z" fill="#F2F2F2"/>
<path d="M128.609 108.039C131.734 108.039 134.268 105.509 134.268 102.388C134.268 99.2666 131.734 96.7366 128.609 96.7366C125.484 96.7366 122.951 99.2666 122.951 102.388C122.951 105.509 125.484 108.039 128.609 108.039Z" fill="#F2F2F2"/>
<path d="M109.37 55.3708C110.12 55.3708 110.728 54.7636 110.728 54.0146C110.728 53.2655 110.12 52.6583 109.37 52.6583C108.62 52.6583 108.012 53.2655 108.012 54.0146C108.012 54.7636 108.62 55.3708 109.37 55.3708Z" fill="#FF6584"/>
<path d="M48.2594 109.847C49.0094 109.847 49.6174 109.24 49.6174 108.491C49.6174 107.742 49.0094 107.135 48.2594 107.135C47.5094 107.135 46.9014 107.742 46.9014 108.491C46.9014 109.24 47.5094 109.847 48.2594 109.847Z" fill="#FF6584"/>
<path d="M236.346 112.786C237.096 112.786 237.704 112.178 237.704 111.429C237.704 110.68 237.096 110.073 236.346 110.073C235.596 110.073 234.988 110.68 234.988 111.429C234.988 112.178 235.596 112.786 236.346 112.786Z" fill="#FF6584"/>
<path d="M88.3209 85.6605C89.0709 85.6605 89.6789 85.0533 89.6789 84.3042C89.6789 83.5552 89.0709 82.948 88.3209 82.948C87.5709 82.948 86.9629 83.5552 86.9629 84.3042C86.9629 85.0533 87.5709 85.6605 88.3209 85.6605Z" fill="#F2F2F2"/>
<path d="M237.704 55.3708C238.454 55.3708 239.062 54.7636 239.062 54.0146C239.062 53.2655 238.454 52.6583 237.704 52.6583C236.954 52.6583 236.346 53.2655 236.346 54.0146C236.346 54.7636 236.954 55.3708 237.704 55.3708Z" fill="#F2F2F2"/>
<path d="M53.9176 151.439C54.6676 151.439 55.2756 150.832 55.2756 150.082C55.2756 149.333 54.6676 148.726 53.9176 148.726C53.1676 148.726 52.5596 149.333 52.5596 150.082C52.5596 150.832 53.1676 151.439 53.9176 151.439Z" fill="#F2F2F2"/>
<path d="M217.334 138.328C218.084 138.328 218.692 137.721 218.692 136.972C218.692 136.223 218.084 135.616 217.334 135.616C216.584 135.616 215.976 136.223 215.976 136.972C215.976 137.721 216.584 138.328 217.334 138.328Z" fill="#F2F2F2"/>
<path d="M177.951 54.0146C178.701 54.0146 179.309 53.4074 179.309 52.6584C179.309 51.9093 178.701 51.3021 177.951 51.3021C177.201 51.3021 176.593 51.9093 176.593 52.6584C176.593 53.4074 177.201 54.0146 177.951 54.0146Z" fill="#F2F2F2"/>
<path d="M199 78.2012C198.329 78.2012 197.672 78.0023 197.114 77.6298C196.556 77.2572 196.12 76.7277 195.863 76.1081C195.606 75.4885 195.539 74.8068 195.67 74.1491C195.801 73.4914 196.125 72.8872 196.599 72.413C197.074 71.9388 197.679 71.6159 198.338 71.4851C198.996 71.3542 199.679 71.4214 200.299 71.678C200.92 71.9347 201.45 72.3692 201.823 72.9268C202.196 73.4844 202.395 74.14 202.395 74.8106C202.394 75.7095 202.036 76.5713 201.4 77.207C200.763 77.8426 199.9 78.2002 199 78.2012V78.2012ZM199 71.872C198.418 71.872 197.849 72.0444 197.365 72.3672C196.881 72.6901 196.504 73.1491 196.282 73.686C196.059 74.223 196.001 74.8138 196.114 75.3838C196.228 75.9539 196.508 76.4775 196.919 76.8884C197.331 77.2994 197.855 77.5793 198.426 77.6926C198.997 77.806 199.588 77.7478 200.126 77.5254C200.664 77.303 201.123 76.9264 201.447 76.4431C201.77 75.9599 201.942 75.3917 201.942 74.8106C201.942 74.0315 201.631 73.2846 201.08 72.7337C200.528 72.1828 199.78 71.8729 199 71.872V71.872Z" fill="#F2F2F2"/>
<path d="M192.663 86.7908C192.17 86.7908 191.689 86.645 191.279 86.3718C190.87 86.0985 190.551 85.7102 190.362 85.2559C190.174 84.8015 190.125 84.3016 190.221 83.8193C190.317 83.3369 190.554 82.8939 190.902 82.5461C191.25 82.1984 191.694 81.9616 192.177 81.8656C192.66 81.7697 193.16 81.8189 193.615 82.0071C194.07 82.1953 194.459 82.514 194.733 82.9229C195.006 83.3318 195.152 83.8126 195.152 84.3043C195.152 84.9636 194.889 85.5956 194.422 86.0617C193.955 86.5279 193.323 86.7901 192.663 86.7908V86.7908ZM192.663 82.27C192.26 82.27 191.866 82.3893 191.531 82.6128C191.196 82.8363 190.935 83.1541 190.781 83.5258C190.626 83.8975 190.586 84.3066 190.665 84.7012C190.743 85.0959 190.937 85.4583 191.222 85.7429C191.507 86.0274 191.87 86.2211 192.265 86.2996C192.66 86.3781 193.07 86.3378 193.442 86.1839C193.814 86.0299 194.132 85.7691 194.356 85.4346C194.58 85.1 194.7 84.7067 194.7 84.3043C194.699 83.765 194.484 83.2479 194.102 82.8665C193.72 82.4851 193.203 82.2706 192.663 82.27V82.27Z" fill="#F2F2F2"/>
<path d="M206.695 98.771C206.203 98.771 205.722 98.6252 205.312 98.352C204.903 98.0788 204.584 97.6904 204.395 97.2361C204.207 96.7817 204.157 96.2818 204.253 95.7995C204.349 95.3171 204.587 94.8741 204.935 94.5264C205.283 94.1786 205.727 93.9418 206.21 93.8459C206.693 93.7499 207.193 93.7992 207.648 93.9874C208.103 94.1756 208.492 94.4943 208.765 94.9032C209.039 95.3121 209.185 95.7928 209.185 96.2846C209.184 96.9438 208.922 97.5758 208.455 98.0419C207.988 98.5081 207.355 98.7703 206.695 98.771V98.771ZM206.695 94.2502C206.292 94.2502 205.899 94.3695 205.564 94.593C205.229 94.8166 204.967 95.1343 204.813 95.506C204.659 95.8778 204.619 96.2868 204.697 96.6814C204.776 97.0761 204.97 97.4386 205.255 97.7231C205.54 98.0076 205.903 98.2013 206.298 98.2798C206.693 98.3583 207.103 98.3181 207.475 98.1641C207.847 98.0101 208.165 97.7493 208.389 97.4148C208.613 97.0802 208.732 96.6869 208.732 96.2846C208.732 95.7452 208.517 95.2281 208.135 94.8467C207.753 94.4653 207.235 94.2508 206.695 94.2502Z" fill="#F2F2F2"/>
<path d="M202.169 102.162C198.498 102.162 194.909 101.075 191.857 99.0378C188.805 97.0011 186.426 94.1063 185.022 90.7194C183.617 87.3325 183.249 83.6056 183.966 80.0101C184.682 76.4145 186.449 73.1118 189.045 70.5196C191.641 67.9274 194.948 66.1621 198.548 65.4469C202.148 64.7317 205.88 65.0987 209.271 66.5016C212.662 67.9045 215.561 70.2803 217.6 73.3284C219.64 76.3766 220.728 79.9602 220.728 83.6262C220.723 88.5404 218.765 93.2517 215.286 96.7266C211.807 100.201 207.089 102.156 202.169 102.162V102.162ZM202.169 65.5428C198.587 65.5428 195.087 66.6034 192.109 68.5904C189.131 70.5774 186.81 73.4016 185.44 76.706C184.069 80.0103 183.711 83.6462 184.409 87.154C185.108 90.6619 186.833 93.884 189.365 96.413C191.897 98.942 195.124 100.664 198.636 101.362C202.148 102.06 205.789 101.702 209.098 100.333C212.406 98.9643 215.234 96.6465 217.224 93.6727C219.214 90.6989 220.276 87.2027 220.276 83.6262C220.27 78.8318 218.361 74.2354 214.966 70.8453C211.572 67.4551 206.969 65.5482 202.169 65.5428V65.5428Z" fill="#F2F2F2"/>
<path d="M202.169 91.0855C186.685 91.0855 174.556 87.809 174.556 83.6262C174.556 81.1888 178.156 79.0944 184.692 77.7286L184.785 78.1712C178.572 79.4693 175.008 81.4576 175.008 83.6262C175.008 87.4245 187.446 90.6335 202.169 90.6335C216.891 90.6335 229.329 87.4245 229.329 83.6262C229.329 81.4535 225.754 79.4627 219.519 78.1643L219.612 77.7217C226.17 79.0876 229.782 81.1845 229.782 83.6262C229.782 87.809 217.653 91.0855 202.169 91.0855Z" fill="#F2F2F2"/>
<path d="M188.236 162.79C187.608 162.79 186.973 162.78 186.351 162.76L186.365 162.309C187.259 162.337 188.171 162.344 189.07 162.332L189.076 162.784C188.796 162.788 188.516 162.79 188.236 162.79ZM191.799 162.685L191.773 162.234C192.668 162.181 193.575 162.107 194.468 162.013L194.516 162.463C193.616 162.557 192.702 162.632 191.799 162.685V162.685ZM183.63 162.615C182.727 162.545 181.814 162.455 180.918 162.345L180.973 161.896C181.863 162.005 182.768 162.095 183.664 162.164L183.63 162.615ZM197.219 162.117L197.151 161.671C198.041 161.536 198.937 161.379 199.815 161.205L199.903 161.648C199.018 161.824 198.115 161.982 197.219 162.117V162.117ZM178.221 161.952C177.329 161.801 176.429 161.628 175.545 161.436L175.641 160.994C176.518 161.184 177.411 161.357 178.297 161.506L178.221 161.952ZM202.563 161.057L202.455 160.618C203.328 160.402 204.206 160.164 205.065 159.909L205.193 160.343C204.328 160.599 203.443 160.839 202.563 161.057V161.057ZM172.896 160.797C172.021 160.565 171.14 160.309 170.279 160.037L170.415 159.606C171.27 159.876 172.144 160.13 173.012 160.36L172.896 160.797ZM207.788 159.509L207.639 159.082C208.487 158.787 209.339 158.469 210.173 158.136L210.341 158.556C209.501 158.892 208.642 159.212 207.788 159.509V159.509ZM167.693 159.155C166.843 158.843 165.988 158.506 165.152 158.154L165.327 157.737C166.157 158.087 167.006 158.421 167.849 158.73L167.693 159.155ZM212.842 157.489L212.654 157.078C213.468 156.708 214.286 156.314 215.085 155.906L215.291 156.309C214.486 156.72 213.662 157.117 212.842 157.489ZM162.66 157.038C161.843 156.65 161.023 156.236 160.223 155.809L160.437 155.411C161.231 155.834 162.044 156.245 162.855 156.63L162.66 157.038ZM217.685 155.017L217.461 154.624C218.241 154.179 219.02 153.712 219.776 153.234L220.018 153.616C219.256 154.097 218.471 154.569 217.685 155.017V155.017ZM157.847 154.47C157.07 154.008 156.292 153.522 155.534 153.023L155.783 152.646C156.535 153.14 157.307 153.623 158.078 154.081L157.847 154.47ZM222.285 152.11L222.026 151.74C222.761 151.227 223.494 150.69 224.206 150.144L224.481 150.502C223.765 151.053 223.025 151.594 222.285 152.11V152.11ZM153.291 151.474C152.561 150.944 151.831 150.388 151.122 149.823L151.404 149.47C152.108 150.031 152.832 150.582 153.557 151.108L153.291 151.474ZM226.603 148.796L226.311 148.45C226.996 147.873 227.677 147.271 228.337 146.662L228.645 146.994C227.98 147.608 227.293 148.214 226.603 148.796ZM149.03 148.076C148.35 147.481 147.674 146.862 147.021 146.236L147.335 145.91C147.982 146.531 148.653 147.145 149.329 147.736L149.03 148.076ZM230.603 145.101L230.28 144.783C230.912 144.144 231.537 143.483 232.137 142.818L232.473 143.12C231.868 143.791 231.239 144.457 230.603 145.101H230.603ZM145.098 144.307C144.474 143.651 143.858 142.974 143.266 142.293L143.608 141.997C144.195 142.672 144.807 143.345 145.426 143.995L145.098 144.307ZM234.251 141.057L233.902 140.77C234.472 140.076 235.034 139.361 235.571 138.643L235.934 138.913C235.392 139.637 234.826 140.358 234.251 141.057H234.251ZM141.527 140.198C140.967 139.491 140.415 138.76 139.887 138.027L140.254 137.763C140.778 138.491 141.326 139.216 141.882 139.918L141.527 140.198ZM237.517 136.695L237.143 136.442C237.647 135.699 238.142 134.935 238.612 134.17L238.998 134.407C238.524 135.178 238.026 135.948 237.517 136.695L237.517 136.695ZM138.347 135.785C137.854 135.029 137.371 134.252 136.912 133.475L137.302 133.245C137.758 134.017 138.237 134.788 138.726 135.537L138.347 135.785ZM240.372 132.052L239.976 131.834C240.411 131.049 240.833 130.242 241.231 129.436L241.637 129.637C241.236 130.448 240.81 131.261 240.372 132.052V132.052ZM135.585 131.102C135.162 130.305 134.753 129.487 134.368 128.672L134.777 128.479C135.16 129.288 135.566 130.1 135.985 130.89L135.585 131.102ZM242.79 127.165L242.375 126.984C242.736 126.161 243.082 125.318 243.405 124.48L243.827 124.642C243.502 125.487 243.153 126.336 242.79 127.165V127.165ZM133.264 126.19C132.917 125.358 132.585 124.507 132.277 123.66L132.702 123.506C133.008 124.346 133.338 125.19 133.682 126.016L133.264 126.19ZM244.747 122.072L244.318 121.93C244.6 121.08 244.867 120.211 245.11 119.347L245.546 119.47C245.3 120.34 245.032 121.216 244.747 122.072V122.072ZM131.405 121.081C131.135 120.22 130.882 119.34 130.653 118.465L131.091 118.35C131.318 119.218 131.57 120.092 131.837 120.947L131.405 121.081ZM246.223 116.833L245.782 116.731C245.984 115.859 246.17 114.97 246.332 114.086L246.778 114.168C246.614 115.058 246.427 115.955 246.223 116.833ZM130.022 115.817C129.833 114.934 129.663 114.035 129.515 113.143L129.961 113.069C130.108 113.954 130.278 114.847 130.465 115.723L130.022 115.817ZM247.209 111.481L246.76 111.42C246.882 110.534 246.985 109.631 247.066 108.736L247.517 108.777C247.435 109.679 247.332 110.589 247.209 111.481V111.481ZM129.13 110.449C129.023 109.554 128.936 108.642 128.87 107.74L129.321 107.707C129.387 108.603 129.474 109.507 129.58 110.395L129.13 110.449ZM247.701 106.061L247.249 106.041C247.289 105.145 247.31 104.237 247.31 103.341H247.763C247.763 104.244 247.742 105.159 247.701 106.061V106.061ZM128.732 105.021C128.717 104.467 128.709 103.901 128.709 103.341C128.709 102.993 128.712 102.646 128.718 102.299L129.171 102.307C129.165 102.651 129.162 102.995 129.162 103.341C129.162 103.897 129.17 104.459 129.185 105.009L128.732 105.021ZM247.307 102.71C247.297 101.814 247.267 100.905 247.217 100.01L247.669 99.9845C247.719 100.887 247.75 101.802 247.759 102.705L247.307 102.71ZM129.278 99.608L128.826 99.5798C128.883 98.6765 128.961 97.7641 129.058 96.868L129.508 96.9167C129.411 97.8061 129.334 98.7115 129.278 99.608ZM247.006 97.3171C246.915 96.4259 246.803 95.5241 246.672 94.6367L247.119 94.5707C247.252 95.4649 247.365 96.3735 247.456 97.2714L247.006 97.3171ZM129.86 94.2389L129.413 94.1698C129.552 93.2754 129.713 92.374 129.892 91.4903L130.336 91.5799C130.158 92.4569 129.998 93.3515 129.86 94.2389ZM246.215 91.9749C246.042 91.093 245.847 90.2053 245.636 89.3365L246.075 89.2296C246.289 90.1051 246.485 90.9997 246.659 91.8882L246.215 91.9749ZM130.933 88.9456L130.493 88.8357C130.713 87.9601 130.957 87.0773 131.217 86.2115L131.651 86.3415C131.392 87.2007 131.151 88.0768 130.933 88.9456ZM244.935 86.7274C244.683 85.8666 244.407 85.0007 244.115 84.1535L244.543 84.0065C244.837 84.8602 245.115 85.7329 245.37 86.6002L244.935 86.7274ZM132.491 83.7662L132.064 83.6163C132.365 82.7617 132.689 81.903 133.029 81.0641L133.449 81.2336C133.112 82.066 132.789 82.9182 132.491 83.7662ZM243.177 81.62C242.847 80.788 242.494 79.9531 242.126 79.1382L242.539 78.9525C242.909 79.7737 243.266 80.6151 243.598 81.4534L243.177 81.62ZM134.523 78.7487L134.111 78.5599C134.489 77.7377 134.892 76.9131 135.307 76.1091L135.71 76.3164C135.297 77.1143 134.898 77.9326 134.523 78.7487ZM240.962 76.7062C240.557 75.9081 240.128 75.1084 239.686 74.3295L240.08 74.1068C240.525 74.8917 240.957 75.6976 241.366 76.5018L240.962 76.7062ZM137.007 73.9419L136.615 73.7163C137.066 72.9332 137.543 72.1493 138.03 71.3866L138.412 71.6299C137.928 72.3868 137.455 73.1647 137.007 73.9419V73.9419ZM238.303 72.0126C237.824 71.2521 237.323 70.4945 236.814 69.7607L237.186 69.5031C237.699 70.2425 238.204 71.0059 238.686 71.7722L238.303 72.0126ZM139.921 69.3851L139.551 69.1247C140.073 68.3855 140.618 67.6488 141.173 66.9349L141.53 67.2119C140.98 67.9205 140.439 68.6516 139.921 69.3851ZM235.223 67.5786C234.678 66.865 234.11 66.1557 233.534 65.4702L233.881 65.1799C234.461 65.8706 235.033 66.5852 235.583 67.3042L235.223 67.5786ZM143.237 65.115L142.893 64.8218C143.478 64.1349 144.089 63.4511 144.707 62.7895L145.038 63.0979C144.424 63.7545 143.819 64.4332 143.237 65.115ZM231.751 63.4404C231.143 62.7794 230.512 62.1242 229.877 61.4933L230.196 61.1726C230.836 61.8084 231.472 62.4685 232.084 63.1344L231.751 63.4404ZM146.928 61.1655L146.611 60.8423C147.259 60.2099 147.928 59.5846 148.602 58.984L148.903 59.3213C148.235 59.9173 147.57 60.5378 146.928 61.1655L146.928 61.1655ZM227.915 59.633C227.249 59.0294 226.561 58.434 225.87 57.8635L226.159 57.5152C226.855 58.09 227.548 58.6899 228.219 59.2981L227.915 59.633ZM150.961 57.5688L150.675 57.2183C151.375 56.6489 152.099 56.0873 152.826 55.5491L153.095 55.9122C152.374 56.4464 151.655 57.0037 150.961 57.5688ZM223.747 56.1884C223.028 55.6477 222.288 55.1171 221.548 54.6115L221.803 54.2384C222.549 54.7478 223.294 55.2823 224.019 55.8272L223.747 56.1884ZM155.302 54.3551L155.05 53.9801C155.799 53.4765 156.57 52.9835 157.343 52.5143L157.578 52.9006C156.812 53.3662 156.046 53.8556 155.302 54.3551V54.3551ZM219.279 53.1365C218.514 52.6637 217.728 52.2027 216.944 51.7663L217.164 51.3714C217.954 51.8111 218.746 52.2757 219.517 52.7519L219.279 53.1365ZM159.917 51.5519L159.7 51.1552C160.492 50.722 161.305 50.3017 162.115 49.9058L162.314 50.3119C161.51 50.7048 160.704 51.1219 159.917 51.5519V51.5519ZM214.548 50.5044C213.742 50.1037 212.917 49.7165 212.096 49.3537L212.279 48.9402C213.107 49.3058 213.938 49.696 214.75 50.0998L214.548 50.5044ZM164.765 49.1834L164.585 48.7686C165.414 48.41 166.261 48.0661 167.104 47.7463L167.265 48.1691C166.428 48.4863 165.588 48.8276 164.765 49.1834ZM209.592 48.3166C208.754 47.992 207.896 47.6823 207.042 47.3962L207.186 46.9676C208.046 47.256 208.911 47.568 209.755 47.8952L209.592 48.3166ZM169.815 47.2685L169.674 46.839C170.534 46.5573 171.412 46.2921 172.282 46.0509L172.403 46.4864C171.539 46.7258 170.668 46.989 169.815 47.2685ZM204.459 46.5964C203.595 46.3506 202.715 46.1217 201.841 45.916L201.945 45.4761C202.825 45.6833 203.713 45.9139 204.583 46.1615L204.459 46.5964ZM175.025 45.8243L174.925 45.3836C175.807 45.1824 176.705 44.9991 177.595 44.8388L177.675 45.2836C176.792 45.4428 175.901 45.6247 175.025 45.8243V45.8243ZM199.195 45.3571C198.314 45.1919 197.416 45.0449 196.527 44.9201L196.589 44.4725C197.486 44.5982 198.391 44.7463 199.279 44.9128L199.195 45.3571ZM180.347 44.8652L180.287 44.4171C181.183 44.2977 182.095 44.1972 182.996 44.1188L183.035 44.5692C182.141 44.6471 181.237 44.7467 180.347 44.8652V44.8652ZM193.84 44.6058C192.949 44.5219 192.041 44.4572 191.143 44.4139L191.165 43.9622C192.07 44.0061 192.984 44.0712 193.883 44.1557L193.84 44.6058ZM185.734 44.3958L185.715 43.9441C186.547 43.9095 187.395 43.8918 188.236 43.8916L188.441 43.8919L188.439 44.344L188.236 44.3437C187.402 44.3439 186.56 44.3615 185.734 44.3958V44.3958Z" fill="#F2F2F2"/>
<path d="M137.19 127.254C139.31 124.693 141.704 122.285 144.625 120.694C147.546 119.104 151.065 118.398 154.255 119.344C156.636 120.05 158.665 121.603 160.544 123.226C164.392 126.552 167.94 130.359 172.479 132.657C177.018 134.955 182.999 135.384 186.854 132.067C189.905 129.441 191.206 124.894 194.85 123.18C198.442 121.491 202.606 123.305 206.251 124.877C211.201 127.011 216.323 128.722 221.563 129.992C225.107 130.851 228.758 131.509 232.389 131.164C236.019 130.818 239.664 129.367 242.032 126.596" fill="#F2F2F2"/>
<path d="M119.883 114.531H129.022C129.645 110.931 129.645 107.25 129.022 103.65H119.883C120.912 107.204 120.912 110.977 119.883 114.531V114.531Z" fill="#00C4F3"/>
<path d="M45.8706 119.504H55.0093C55.633 115.904 55.633 112.223 55.0093 108.622H45.8706C46.9002 112.177 46.9002 115.95 45.8706 119.504Z" fill="#00C4F3"/>
<path d="M204.986 86.5022H214.125C214.748 82.9016 214.748 79.2208 214.125 75.6202H204.986C206.015 79.1747 206.015 82.9477 204.986 86.5022V86.5022Z" fill="#00C4F3"/>
<path d="M80.7812 188.607L78.8657 194.695L84.7867 195.216L84.2643 188.607H80.7812Z" fill="#FFB9B9"/>
<path d="M109.516 193.303V201.651H116.308L114.392 193.303H109.516Z" fill="#FFB9B9"/>
<path d="M85.3095 132.604L82.5231 159.04C82.5231 159.04 79.0401 182.346 79.7367 185.998C80.4333 189.651 79.5625 190.172 79.5625 190.172H84.787C84.787 190.172 84.6129 187.911 85.6578 186.868C86.7027 185.824 86.1802 182.694 86.1802 182.694L99.4156 142.344L106.904 164.954C106.904 164.954 108.123 189.825 108.297 190.172C108.471 190.52 108.994 195.216 108.994 195.216H115.437C115.437 195.216 114.567 192.433 115.786 191.564C117.005 190.694 118.05 191.39 117.005 189.825C115.96 188.259 115.612 186.346 115.96 185.476C116.308 184.607 116.308 181.128 116.308 181.128C116.308 181.128 115.786 134.169 112.825 132.604C109.865 131.039 85.3095 132.604 85.3095 132.604Z" fill="#2F2E41"/>
<path d="M111.357 197.227C111.357 197.227 108.379 196.781 108.379 196.929C108.379 197.078 104.805 206.743 108.379 206.595C111.952 206.446 125.501 204.513 124.608 200.944C123.714 197.375 119.248 198.416 119.248 198.416L115.228 196.186L111.357 197.227Z" fill="#2F2E41"/>
<path d="M82.0381 194.147C82.0381 194.147 85.0159 193.701 85.0159 193.85C85.0159 193.998 88.5893 203.664 85.0159 203.515C81.4425 203.366 67.8935 201.433 68.7868 197.864C69.6802 194.296 74.1469 195.337 74.1469 195.337L78.1669 193.106L82.0381 194.147Z" fill="#2F2E41"/>
<path d="M96.2778 153.82H105.072C105.673 150.355 105.673 146.813 105.072 143.348H96.2778C97.2686 146.769 97.2686 150.4 96.2778 153.82V153.82Z" fill="#D0CDE1"/>
<path d="M93.7168 154.186H102.511C103.112 150.721 103.112 147.179 102.511 143.714H93.7168C94.7076 147.134 94.7076 150.765 93.7168 154.186V154.186Z" fill="#00C4F3"/>
<path d="M99.6366 82.9199C103.422 82.9199 106.49 79.8556 106.49 76.0755C106.49 72.2954 103.422 69.2311 99.6366 69.2311C95.8516 69.2311 92.7832 72.2954 92.7832 76.0755C92.7832 79.8556 95.8516 82.9199 99.6366 82.9199Z" fill="#FFB9B9"/>
<path d="M94.1906 75.2094C94.1906 75.2094 92.9716 87.3839 91.4042 88.2536C89.8369 89.1232 103.421 89.9928 103.421 89.9928C103.421 89.9928 100.112 78.8617 101.157 77.8182C102.202 76.7747 94.1906 75.2094 94.1906 75.2094Z" fill="#FFB9B9"/>
<path d="M108.82 87.9058C108.82 87.9058 103.943 83.2099 98.3705 84.0795C92.7977 84.9491 88.7923 85.9926 88.7923 85.9926C88.7923 85.9926 80.2589 90.5146 80.0848 94.167C79.9106 97.8194 83.2195 111.559 83.2195 111.559C83.2195 111.559 84.7868 133.995 84.961 133.995C85.1351 133.995 114.392 133.647 114.392 133.647L108.994 104.428L108.82 87.9058Z" fill="#575A89"/>
<path d="M107.681 129.757C106.552 130.061 104.607 129.64 102.576 128.976C98.954 127.788 95.0617 125.821 95.0617 125.821C95.0617 125.821 82.5229 120.777 78.8658 118.168C75.2086 115.56 77.6467 105.124 77.6467 105.124L83.2195 106.863L82.8712 113.299L96.6291 122.169C98.7909 122.371 100.925 122.799 102.998 123.447C105.314 124.207 107.564 125.391 108.377 127.211C108.504 127.488 108.594 127.781 108.645 128.082C108.811 129.042 108.421 129.555 107.681 129.757Z" fill="#FFB9B9"/>
<path opacity="0.15" d="M108.377 127.211C108.135 128.112 107.9 128.969 107.68 129.757C106.552 130.061 104.607 129.64 102.576 128.976L102.998 123.447C105.314 124.207 107.564 125.391 108.377 127.211Z" fill="black"/>
<path d="M105.859 101.82L104.814 111.037L103.081 133.782C103.081 133.782 93.4943 145.3 98.893 145.648C104.292 145.996 107.252 134.343 107.252 134.343C107.252 134.343 112.651 115.907 112.477 112.081C112.303 108.255 112.477 101.82 112.477 101.82H105.859Z" fill="#FFB9B9"/>
<path d="M107.376 75.3116C107.556 75.24 107.722 75.1398 107.869 75.0151C108.243 74.6525 108.18 74.038 108.018 73.5432C107.855 73.0485 107.618 72.537 107.734 72.0294C107.788 71.7929 107.918 71.5766 107.954 71.3368C108.042 70.7665 107.586 70.2468 107.082 69.9652C106.578 69.6836 105.998 69.5449 105.522 69.2188C104.791 68.7186 104.387 67.8364 103.645 67.3528C102.92 66.8799 101.998 66.8653 101.132 66.8662L98.545 66.8691C97.1933 66.8706 95.7079 66.9207 94.7019 67.8223C94.3959 68.0966 94.1535 68.4362 93.8436 68.706C93.2195 69.2495 92.3772 69.4664 91.6842 69.919C91.1667 70.2646 90.7436 70.7336 90.4533 71.2836C90.1629 71.8335 90.0144 72.4471 90.0212 73.0688C90.0457 74.215 90.6051 75.3285 90.4598 76.4658C90.3622 77.2287 89.9499 77.9617 90.0582 78.7231C90.1867 79.6262 91.0161 80.2731 91.8667 80.6052C92.7173 80.9373 93.6446 81.0566 94.4722 81.4423C95.1477 81.7571 95.8534 82.259 96.5655 82.0387C97.1679 81.8523 97.4985 81.2169 97.7143 80.6251C97.9667 79.9329 98.1521 79.2182 98.268 78.4907C98.3547 77.9465 98.4122 77.3698 98.7322 76.9209C98.9201 76.6766 99.1674 76.4844 99.4506 76.3624C99.7338 76.2404 100.044 76.1927 100.35 76.2239C101.747 76.3465 102.533 78.722 103.818 78.1602C104.455 77.8816 104.944 77.0479 105.454 76.5933C106.031 76.0777 106.678 75.6462 107.376 75.3116V75.3116Z" fill="#2F2E41"/>
<path d="M82.1745 92.6017C82.1745 92.6017 78.6915 93.8191 77.2983 98.689C75.9051 103.559 76.4275 106.863 76.4275 106.863L83.7418 108.081L82.1745 92.6017Z" fill="#575A89"/>
<path d="M105.336 87.558C105.336 87.558 111.606 86.1666 112.477 92.08C113.021 96.0577 113.312 100.066 113.347 104.081C113.347 104.081 107.426 101.298 104.814 104.081L105.336 87.558Z" fill="#575A89"/>
<path d="M127.704 107.135H121.593V107.813H127.704V107.135Z" fill="#F2F2F2"/>
<path d="M53.6912 112.786H47.5801V113.464H53.6912V112.786Z" fill="#F2F2F2"/>
<path d="M127.704 108.717H121.593V109.395H127.704V108.717Z" fill="#F2F2F2"/>
<path d="M213.033 78.2012H206.922V78.8793H213.033V78.2012Z" fill="#F2F2F2"/>
<path d="M213.033 81.3657H206.922V82.0439H213.033V81.3657Z" fill="#F2F2F2"/>
<path d="M213.033 79.7834H206.922V80.4616H213.033V79.7834Z" fill="#F2F2F2"/>
</svg>
