<svg width="280" height="162" viewBox="0 0 280 162" fill="none" xmlns="http://www.w3.org/2000/svg">
<g clip-path="url(#clip0)">
<path d="M140 161.15C217.32 161.15 280 157.545 280 153.098C280 148.651 217.32 145.046 140 145.046C62.6801 145.046 0 148.651 0 153.098C0 157.545 62.6801 161.15 140 161.15Z" fill="#F2F2F2"/>
<path d="M254.908 0H44.5879V6.69119H254.908V0Z" fill="#F2F2F2"/>
<path d="M50.2161 4.97858C51.1725 4.97858 51.9478 4.20326 51.9478 3.24686C51.9478 2.29045 51.1725 1.51514 50.2161 1.51514C49.2597 1.51514 48.4844 2.29045 48.4844 3.24686C48.4844 4.20326 49.2597 4.97858 50.2161 4.97858Z" fill="#00BBFF"/>
<path d="M55.844 4.97858C56.8004 4.97858 57.5757 4.20326 57.5757 3.24686C57.5757 2.29045 56.8004 1.51514 55.844 1.51514C54.8876 1.51514 54.1123 2.29045 54.1123 3.24686C54.1123 4.20326 54.8876 4.97858 55.844 4.97858Z" fill="#00BBFF"/>
<path d="M61.472 4.97858C62.4284 4.97858 63.2037 4.20326 63.2037 3.24686C63.2037 2.29045 62.4284 1.51514 61.472 1.51514C60.5156 1.51514 59.7402 2.29045 59.7402 3.24686C59.7402 4.20326 60.5156 4.97858 61.472 4.97858Z" fill="#00BBFF"/>
<path d="M44.737 105.827L44.5879 105.955V151.092H254.908V71.8071L252.401 71.9972L44.737 105.827Z" fill="#3F3D56"/>
<path d="M118.498 44.7595H59.7661V47.1277H118.498V44.7595Z" fill="#3F3D56"/>
<path d="M118.498 49.9695H59.7661V52.3377H118.498V49.9695Z" fill="#3F3D56"/>
<path d="M79.6592 55.1797H59.7661V57.5479H79.6592V55.1797Z" fill="#3F3D56"/>
<path d="M238.27 110.507H179.539V112.875H238.27V110.507Z" fill="white"/>
<path d="M238.27 115.717H179.539V118.085H238.27V115.717Z" fill="white"/>
<path d="M199.432 120.927H179.539V123.295H199.432V120.927Z" fill="white"/>
<path d="M143.048 148.909C144.324 148.909 145.358 147.875 145.358 146.599C145.358 145.323 144.324 144.289 143.048 144.289C141.772 144.289 140.738 145.323 140.738 146.599C140.738 147.875 141.772 148.909 143.048 148.909Z" fill="#F2F2F2"/>
<path d="M149.748 149.14C151.024 149.14 152.058 148.106 152.058 146.83C152.058 145.554 151.024 144.52 149.748 144.52C148.472 144.52 147.438 145.554 147.438 146.83C147.438 148.106 148.472 149.14 149.748 149.14Z" fill="#F2F2F2"/>
<path d="M156.447 149.371C157.723 149.371 158.758 148.337 158.758 147.061C158.758 145.785 157.723 144.75 156.447 144.75C155.172 144.75 154.137 145.785 154.137 147.061C154.137 148.337 155.172 149.371 156.447 149.371Z" fill="#F2F2F2"/>
<path d="M149.769 148.678C150.789 148.678 151.617 147.851 151.617 146.83C151.617 145.809 150.789 144.982 149.769 144.982C148.748 144.982 147.92 145.809 147.92 146.83C147.92 147.851 148.748 148.678 149.769 148.678Z" fill="#3F3D56"/>
<path d="M99.0269 71.8669H79.1338V76.4056H99.0269V71.8669Z" fill="#3F3D56"/>
<path d="M217.27 133.282H197.377V137.821H217.27V133.282Z" fill="white"/>
<path opacity="0.3" d="M89.1922 87.9216C96.7923 87.9216 102.953 81.7606 102.953 74.1605C102.953 66.5605 96.7923 60.3994 89.1922 60.3994C81.5922 60.3994 75.4312 66.5605 75.4312 74.1605C75.4312 81.7606 81.5922 87.9216 89.1922 87.9216Z" fill="#00BBFF"/>
<path opacity="0.3" d="M89.1921 83.3344C94.2588 83.3344 98.3662 79.2271 98.3662 74.1604C98.3662 69.0937 94.2588 64.9863 89.1921 64.9863C84.1254 64.9863 80.0181 69.0937 80.0181 74.1604C80.0181 79.2271 84.1254 83.3344 89.1921 83.3344Z" fill="#00BBFF"/>
<path d="M89.1922 80.5313C92.7107 80.5313 95.563 77.679 95.563 74.1604C95.563 70.6419 92.7107 67.7896 89.1922 67.7896C85.6736 67.7896 82.8213 70.6419 82.8213 74.1604C82.8213 77.679 85.6736 80.5313 89.1922 80.5313Z" fill="#00BBFF"/>
<path opacity="0.3" d="M204.983 53.8174C212.583 53.8174 218.744 47.6563 218.744 40.0563C218.744 32.4562 212.583 26.2952 204.983 26.2952C197.383 26.2952 191.222 32.4562 191.222 40.0563C191.222 47.6563 197.383 53.8174 204.983 53.8174Z" fill="#00BBFF"/>
<path opacity="0.3" d="M204.983 49.2302C210.05 49.2302 214.157 45.1228 214.157 40.0561C214.157 34.9894 210.05 30.8821 204.983 30.8821C199.916 30.8821 195.809 34.9894 195.809 40.0561C195.809 45.1228 199.916 49.2302 204.983 49.2302Z" fill="#00BBFF"/>
<path d="M204.983 46.4271C208.502 46.4271 211.354 43.5747 211.354 40.0562C211.354 36.5376 208.502 33.6853 204.983 33.6853C201.465 33.6853 198.612 36.5376 198.612 40.0562C198.612 43.5747 201.465 46.4271 204.983 46.4271Z" fill="#00BBFF"/>
<path opacity="0.3" d="M207.436 149.337C215.036 149.337 221.197 143.176 221.197 135.576C221.197 127.976 215.036 121.815 207.436 121.815C199.836 121.815 193.675 127.976 193.675 135.576C193.675 143.176 199.836 149.337 207.436 149.337Z" fill="#00BBFF"/>
<path opacity="0.3" d="M207.436 144.75C212.502 144.75 216.61 140.642 216.61 135.576C216.61 130.509 212.502 126.402 207.436 126.402C202.369 126.402 198.262 130.509 198.262 135.576C198.262 140.642 202.369 144.75 207.436 144.75Z" fill="#00BBFF"/>
<path d="M207.436 141.947C210.954 141.947 213.807 139.094 213.807 135.576C213.807 132.057 210.954 129.205 207.436 129.205C203.917 129.205 201.065 132.057 201.065 135.576C201.065 139.094 203.917 141.947 207.436 141.947Z" fill="#00BBFF"/>
<path d="M22.9152 27.869L28.5791 28.0886L28.8615 20.8065L23.1976 20.5869L22.9152 27.869Z" fill="#00BBFF"/>
<path d="M48.7473 46.0904C48.7473 46.0904 56.5909 42.3429 56.4654 45.5794C56.3399 48.8159 48.5591 50.9452 48.5591 50.9452L48.7473 46.0904Z" fill="#FFB9B9"/>
<path d="M44.4439 73.4751C44.4439 73.4751 48.1444 82.5324 49.5116 89.0681C50.8789 95.6039 52.9611 104.598 50.2827 110.977C47.6044 117.356 39.9895 136.104 39.911 138.127C39.8326 140.149 40.5633 142.204 38.945 142.141C37.3268 142.078 28.5205 139.306 28.163 138.076C27.8055 136.847 31.1675 133.736 31.1675 133.736L39.4694 107.722L30.8077 90.7738L24.56 116.057L23.3363 147.613C23.3363 147.613 17.3307 145.76 16.4588 147.346C16.4588 147.346 13.7681 143.596 13.4262 141.962C13.0844 140.328 14.697 109.192 14.697 109.192C14.697 109.192 9.1843 73.7285 13.6345 73.9011C18.0847 74.0737 35.5155 63.4048 44.4439 73.4751Z" fill="#2F2E41"/>
<path d="M39.0079 140.523C39.0079 140.523 43.1129 149.596 43.5018 150.016C43.8907 150.436 46.5657 154.591 44.5429 154.513C42.5201 154.435 37.7438 152.224 34.2283 148.846C30.7127 145.468 26.0776 139.616 26.4979 139.227C26.9181 138.838 29.7971 137.734 29.7971 137.734L39.0079 140.523Z" fill="#2F2E41"/>
<path d="M22.6058 145.559C22.6058 145.559 22.8535 149.62 23.5999 151.27C24.3462 152.919 24.2521 155.347 22.2293 155.268C20.2065 155.19 14.9786 154.177 14.9786 154.177C14.9786 154.177 14.6681 151.734 15.0884 151.345C15.5086 150.956 17.2994 146.569 16.5374 145.324C15.7753 144.078 22.6058 145.559 22.6058 145.559Z" fill="#2F2E41"/>
<path d="M19.6135 13.7627C19.6135 13.7627 15.3012 20.4834 13.6202 22.0389C11.9392 23.5944 16.6684 27.0191 16.6684 27.0191L25.1328 28.1577C25.1328 28.1577 25.0263 20.4553 25.4623 19.6619C25.8982 18.8684 19.6135 13.7627 19.6135 13.7627Z" fill="#FFB9B9"/>
<path d="M26.9703 22.5565C26.9703 22.5565 25.2265 25.7303 23.6083 25.6675C21.9901 25.6048 13.6198 22.0388 13.2623 20.8095C12.9047 19.5801 10.4897 29.6157 10.4897 29.6157L30.9712 65.6597L35.9672 62.2069L33.5465 41.0442L31.5583 29.6224L26.9703 22.5565Z" fill="#00BBFF"/>
<path d="M12.507 54.8145C13.324 56.5236 13.8343 58.3058 13.7635 60.1304C13.7604 60.2113 13.7572 60.2922 13.75 60.373C13.5562 64.1173 12.1768 68.4478 11.682 71.597C11.3229 73.8561 11.4251 75.5051 12.7471 75.8926C15.9522 76.8273 12.2798 77.4952 24.68 81.6226C37.0802 85.75 39.2442 82.1873 39.2756 81.3782C39.307 80.5691 37.5195 74.4222 37.9397 74.0334C38.36 73.6445 43.8199 79.1234 45.4695 78.3771C47.1192 77.6307 45.6578 73.5223 45.6578 73.5223C45.6578 73.5223 41.9416 64.8696 42.0201 62.8468C42.0985 60.824 36.3909 51.2838 36.3909 51.2838L32.5088 26.0127C32.5088 26.0127 31.0161 22.7134 29.009 22.2304C27.0018 21.7474 25.3365 22.8983 25.3365 22.8983L28.6952 30.3217L32.2388 43.4245L31.646 48.2636C31.646 48.2636 27.5253 39.5952 24.8188 36.2489C22.1124 32.9026 16.3421 24.9806 16.3421 24.9806C16.3421 24.9806 14.9949 20.435 16.0119 19.0766C17.029 17.7142 11.7697 17.5102 9.52726 23.0956C8.33876 26.0559 6.40915 30.4704 5.20036 34.5805C4.12322 38.2218 3.61442 41.6257 4.68155 43.5714C6.31255 46.5438 10.4153 50.4507 12.507 54.8145Z" fill="#575A89"/>
<path opacity="0.1" d="M4.68155 43.5715C6.31257 46.5439 10.4154 50.4508 12.507 54.8146C13.0533 52.8464 13.7198 50.8099 13.7198 50.8099C13.7198 50.8099 16.276 37.1333 8.71481 33.5987C7.46197 33.4776 6.20896 33.8277 5.20037 34.5807C4.12322 38.2219 3.61442 41.6259 4.68155 43.5715Z" fill="black"/>
<path d="M34.6975 42.7095L41.1077 44.5787L50.0081 44.9239L50.9237 52.6576L36.2967 53.7111C36.2967 53.7111 32.6433 43.4402 34.6975 42.7095Z" fill="#575A89"/>
<path d="M24.2445 68.7126C24.2445 68.7126 32.8201 70.1354 30.8629 72.7161C28.9056 75.2967 21.3086 72.5836 21.3086 72.5836L24.2445 68.7126Z" fill="#FFB9B9"/>
<path opacity="0.1" d="M13.7497 60.373C13.5559 64.1174 12.1765 68.4479 11.6816 71.5971C14.4135 74.1827 17.0114 76.4633 17.9904 76.5012C20.0132 76.5797 23.2654 76.3006 24.4634 76.7522C25.6614 77.2039 26.364 69.5329 26.364 69.5329C26.364 69.5329 25.649 67.0741 22.4596 65.7349C20.3068 64.8289 16.1802 62.3716 13.7497 60.373Z" fill="black"/>
<path d="M8.80866 31.1711C8.80866 31.1711 1.96248 30.0953 2.33233 41.4544C2.70219 52.8135 1.61068 60.0642 4.36417 62.1969C7.11767 64.3295 16.0618 73.9952 18.0846 74.0737C20.1074 74.1521 23.3596 73.8731 24.5576 74.3247C25.7556 74.7763 26.4582 67.1053 26.4582 67.1053C26.4582 67.1053 25.7432 64.6466 22.5538 63.3074C19.3643 61.9682 11.8502 57.2199 11.913 55.6017C11.9757 53.9834 13.8136 48.3823 13.8136 48.3823C13.8136 48.3823 16.3698 34.7057 8.80866 31.1711Z" fill="#575A89"/>
<path d="M25.6502 23.7142C30.5694 23.7142 34.5573 19.7264 34.5573 14.8072C34.5573 9.88797 30.5694 5.90015 25.6502 5.90015C20.731 5.90015 16.7432 9.88797 16.7432 14.8072C16.7432 19.7264 20.731 23.7142 25.6502 23.7142Z" fill="#FFB9B9"/>
<path d="M31.6476 2.0408C31.8625 2.2259 32.1197 2.355 32.3965 2.41662C32.5355 2.44139 32.6786 2.41019 32.7946 2.32981C32.9107 2.24944 32.9902 2.12642 33.0159 1.98762C33.2196 2.41024 33.4496 2.86067 33.8656 3.07752C34.2817 3.29438 34.9251 3.11254 34.985 2.6472C35.0458 3.00052 35.2021 3.33047 35.437 3.60128C35.6952 3.84741 36.1633 3.90953 36.3887 3.63309C36.2065 4.62884 36.3189 5.65287 36.2617 6.66354C36.2045 7.67421 35.935 8.74567 35.1714 9.41026C34.0578 10.3795 32.3832 10.1403 30.9184 9.95665C30.6969 9.91016 30.467 9.92273 30.2519 9.99311C29.7034 10.2268 29.7283 10.9903 29.7209 11.5864C29.6762 12.6324 29.2622 13.6287 28.5525 14.3984C27.8428 15.1681 26.8832 15.6613 25.8443 15.7906C25.2629 15.8803 24.6696 15.7355 24.1949 15.388C23.779 15.0355 23.5665 14.4609 23.09 14.1961C22.3147 13.7653 21.3745 14.3936 20.8077 15.0757C20.241 15.7578 19.6823 16.5969 18.8043 16.7218C17.643 16.8869 16.7586 15.7034 16.3246 14.6137C15.726 13.0864 15.4391 11.4546 15.4811 9.81471C15.523 8.17477 15.8929 6.55983 16.5689 5.06511C18.9936 -0.220444 27.2766 -1.05646 31.6476 2.0408Z" fill="#2F2E41"/>
<path d="M245.463 143.668C248.6 149.018 254.927 151.136 254.927 151.136C254.927 151.136 256.167 144.58 253.03 139.231C249.893 133.881 243.567 131.763 243.567 131.763C243.567 131.763 242.326 138.319 245.463 143.668Z" fill="#F2F2F2"/>
<path d="M247.42 141.801C252.845 144.806 255.118 151.078 255.118 151.078C255.118 151.078 248.595 152.48 243.17 149.475C237.745 146.47 235.472 140.198 235.472 140.198C235.472 140.198 241.995 138.796 247.42 141.801Z" fill="#00BBFF"/>
</g>
<defs>
<clipPath id="clip0">
<rect width="280" height="161.15" fill="white"/>
</clipPath>
</defs>
</svg>
